<svg width="497" height="497" viewBox="0 0 497 497" fill="none" xmlns="http://www.w3.org/2000/svg">
<line y1="-0.5" x2="6.40349" y2="-0.5" transform="matrix(1 0 0 -1 0.491211 3.85092)" stroke="black"/>
<line y1="-0.5" x2="6.40349" y2="-0.5" transform="matrix(-4.37114e-08 -1 -1 4.37114e-08 3.40186 7.34375)" stroke="black"/>
<line y1="-0.5" x2="6.40349" y2="-0.5" transform="matrix(1 0 0 -1 122.895 3.85092)" stroke="black"/>
<line y1="-0.5" x2="6.40349" y2="-0.5" transform="matrix(-4.37114e-08 -1 -1 4.37114e-08 125.805 7.34375)" stroke="black"/>
<line y1="-0.5" x2="6.40349" y2="-0.5" transform="matrix(1 0 0 -1 245.298 3.85092)" stroke="black"/>
<line y1="-0.5" x2="6.40349" y2="-0.5" transform="matrix(-4.37114e-08 -1 -1 4.37114e-08 248.209 7.34375)" stroke="black"/>
<line y1="-0.5" x2="6.40349" y2="-0.5" transform="matrix(1 0 0 -1 367.702 3.85092)" stroke="black"/>
<line y1="-0.5" x2="6.40349" y2="-0.5" transform="matrix(-4.37114e-08 -1 -1 4.37114e-08 370.613 7.34375)" stroke="black"/>
<line y1="-0.5" x2="6.40349" y2="-0.5" transform="matrix(1 0 0 -1 490.105 3.85092)" stroke="black"/>
<line y1="-0.5" x2="6.40349" y2="-0.5" transform="matrix(-4.37114e-08 -1 -1 4.37114e-08 493.016 7.34375)" stroke="black"/>
<line y1="-0.5" x2="6.40349" y2="-0.5" transform="matrix(1 0 0 -1 0.491211 126.254)" stroke="black"/>
<line y1="-0.5" x2="6.40349" y2="-0.5" transform="matrix(-4.37114e-08 -1 -1 4.37114e-08 3.40186 129.747)" stroke="black"/>
<line y1="-0.5" x2="6.40349" y2="-0.5" transform="matrix(1 0 0 -1 122.895 126.254)" stroke="black"/>
<line y1="-0.5" x2="6.40349" y2="-0.5" transform="matrix(-4.37114e-08 -1 -1 4.37114e-08 125.805 129.747)" stroke="black"/>
<line y1="-0.5" x2="6.40349" y2="-0.5" transform="matrix(1 0 0 -1 245.298 126.254)" stroke="black"/>
<line y1="-0.5" x2="6.40349" y2="-0.5" transform="matrix(-4.37114e-08 -1 -1 4.37114e-08 248.209 129.747)" stroke="black"/>
<line y1="-0.5" x2="6.40349" y2="-0.5" transform="matrix(1 0 0 -1 367.702 126.254)" stroke="black"/>
<line y1="-0.5" x2="6.40349" y2="-0.5" transform="matrix(-4.37114e-08 -1 -1 4.37114e-08 370.613 129.747)" stroke="black"/>
<line y1="-0.5" x2="6.40349" y2="-0.5" transform="matrix(1 0 0 -1 490.105 126.254)" stroke="black"/>
<line y1="-0.5" x2="6.40349" y2="-0.5" transform="matrix(-4.37114e-08 -1 -1 4.37114e-08 493.016 129.747)" stroke="black"/>
<line y1="-0.5" x2="6.40349" y2="-0.5" transform="matrix(1 0 0 -1 0.491211 248.658)" stroke="black"/>
<line y1="-0.5" x2="6.40349" y2="-0.5" transform="matrix(-4.37114e-08 -1 -1 4.37114e-08 3.40186 252.151)" stroke="black"/>
<line y1="-0.5" x2="6.40349" y2="-0.5" transform="matrix(1 0 0 -1 122.895 248.658)" stroke="black"/>
<line y1="-0.5" x2="6.40349" y2="-0.5" transform="matrix(-4.37114e-08 -1 -1 4.37114e-08 125.805 252.151)" stroke="black"/>
<line y1="-0.5" x2="6.40349" y2="-0.5" transform="matrix(1 0 0 -1 245.298 248.658)" stroke="black"/>
<line y1="-0.5" x2="6.40349" y2="-0.5" transform="matrix(-4.37114e-08 -1 -1 4.37114e-08 248.209 252.151)" stroke="black"/>
<line y1="-0.5" x2="6.40349" y2="-0.5" transform="matrix(1 0 0 -1 367.702 248.658)" stroke="black"/>
<line y1="-0.5" x2="6.40349" y2="-0.5" transform="matrix(-4.37114e-08 -1 -1 4.37114e-08 370.613 252.151)" stroke="black"/>
<line y1="-0.5" x2="6.40349" y2="-0.5" transform="matrix(1 0 0 -1 490.105 248.658)" stroke="black"/>
<line y1="-0.5" x2="6.40349" y2="-0.5" transform="matrix(-4.37114e-08 -1 -1 4.37114e-08 493.016 252.151)" stroke="black"/>
<line y1="-0.5" x2="6.40349" y2="-0.5" transform="matrix(1 0 0 -1 0.491211 371.061)" stroke="black"/>
<line y1="-0.5" x2="6.40349" y2="-0.5" transform="matrix(-4.37114e-08 -1 -1 4.37114e-08 3.40186 374.554)" stroke="black"/>
<line y1="-0.5" x2="6.40349" y2="-0.5" transform="matrix(1 0 0 -1 122.895 371.061)" stroke="black"/>
<line y1="-0.5" x2="6.40349" y2="-0.5" transform="matrix(-4.37114e-08 -1 -1 4.37114e-08 125.805 374.554)" stroke="black"/>
<line y1="-0.5" x2="6.40349" y2="-0.5" transform="matrix(1 0 0 -1 245.298 371.061)" stroke="black"/>
<line y1="-0.5" x2="6.40349" y2="-0.5" transform="matrix(-4.37114e-08 -1 -1 4.37114e-08 248.209 374.554)" stroke="black"/>
<line y1="-0.5" x2="6.40349" y2="-0.5" transform="matrix(1 0 0 -1 367.702 371.061)" stroke="black"/>
<line y1="-0.5" x2="6.40349" y2="-0.5" transform="matrix(-4.37114e-08 -1 -1 4.37114e-08 370.613 374.554)" stroke="black"/>
<line y1="-0.5" x2="6.40349" y2="-0.5" transform="matrix(1 0 0 -1 490.105 371.061)" stroke="black"/>
<line y1="-0.5" x2="6.40349" y2="-0.5" transform="matrix(-4.37114e-08 -1 -1 4.37114e-08 493.016 374.554)" stroke="black"/>
<line y1="-0.5" x2="6.40349" y2="-0.5" transform="matrix(1 0 0 -1 0.491211 493.465)" stroke="black"/>
<line y1="-0.5" x2="6.40349" y2="-0.5" transform="matrix(-4.37114e-08 -1 -1 4.37114e-08 3.40186 496.958)" stroke="black"/>
<line y1="-0.5" x2="6.40349" y2="-0.5" transform="matrix(1 0 0 -1 122.895 493.465)" stroke="black"/>
<line y1="-0.5" x2="6.40349" y2="-0.5" transform="matrix(-4.37114e-08 -1 -1 4.37114e-08 125.805 496.958)" stroke="black"/>
<line y1="-0.5" x2="6.40349" y2="-0.5" transform="matrix(1 0 0 -1 245.298 493.465)" stroke="black"/>
<line y1="-0.5" x2="6.40349" y2="-0.5" transform="matrix(-4.37114e-08 -1 -1 4.37114e-08 248.209 496.958)" stroke="black"/>
<line y1="-0.5" x2="6.40349" y2="-0.5" transform="matrix(1 0 0 -1 367.702 493.465)" stroke="black"/>
<line y1="-0.5" x2="6.40349" y2="-0.5" transform="matrix(-4.37114e-08 -1 -1 4.37114e-08 370.613 496.958)" stroke="black"/>
<line y1="-0.5" x2="6.40349" y2="-0.5" transform="matrix(1 0 0 -1 490.105 493.465)" stroke="black"/>
<line y1="-0.5" x2="6.40349" y2="-0.5" transform="matrix(-4.37114e-08 -1 -1 4.37114e-08 493.016 496.958)" stroke="black"/>
</svg>
