<svg width="494" height="495" viewBox="0 0 494 495" fill="none" xmlns="http://www.w3.org/2000/svg">
<line y1="6.47012" x2="11" y2="6.47012" stroke="black"/>
<line x1="5.5" y1="0.970123" x2="5.5" y2="11.9701" stroke="black"/>
<line x1="161" y1="6.47012" x2="172" y2="6.47012" stroke="black"/>
<line x1="166.5" y1="0.970123" x2="166.5" y2="11.9701" stroke="black"/>
<line x1="322" y1="6.47012" x2="333" y2="6.47012" stroke="black"/>
<line x1="327.5" y1="0.970123" x2="327.5" y2="11.9701" stroke="black"/>
<line x1="483" y1="6.47012" x2="494" y2="6.47012" stroke="black"/>
<line x1="488.5" y1="0.970123" x2="488.5" y2="11.9701" stroke="black"/>
<line y1="167.47" x2="11" y2="167.47" stroke="black"/>
<line x1="5.5" y1="161.97" x2="5.5" y2="172.97" stroke="black"/>
<line x1="161" y1="167.47" x2="172" y2="167.47" stroke="black"/>
<line x1="166.5" y1="161.97" x2="166.5" y2="172.97" stroke="black"/>
<line x1="322" y1="167.47" x2="333" y2="167.47" stroke="black"/>
<line x1="327.5" y1="161.97" x2="327.5" y2="172.97" stroke="black"/>
<line x1="483" y1="167.47" x2="494" y2="167.47" stroke="black"/>
<line x1="488.5" y1="161.97" x2="488.5" y2="172.97" stroke="black"/>
<line y1="328.47" x2="11" y2="328.47" stroke="black"/>
<line x1="5.5" y1="322.97" x2="5.5" y2="333.97" stroke="black"/>
<line x1="161" y1="328.47" x2="172" y2="328.47" stroke="black"/>
<line x1="166.5" y1="322.97" x2="166.5" y2="333.97" stroke="black"/>
<line x1="322" y1="328.47" x2="333" y2="328.47" stroke="black"/>
<line x1="327.5" y1="322.97" x2="327.5" y2="333.97" stroke="black"/>
<line x1="483" y1="328.47" x2="494" y2="328.47" stroke="black"/>
<line x1="488.5" y1="322.97" x2="488.5" y2="333.97" stroke="black"/>
<line y1="489.47" x2="11" y2="489.47" stroke="black"/>
<line x1="5.5" y1="483.97" x2="5.5" y2="494.97" stroke="black"/>
<line x1="161" y1="489.47" x2="172" y2="489.47" stroke="black"/>
<line x1="166.5" y1="483.97" x2="166.5" y2="494.97" stroke="black"/>
<line x1="322" y1="489.47" x2="333" y2="489.47" stroke="black"/>
<line x1="327.5" y1="483.97" x2="327.5" y2="494.97" stroke="black"/>
<line x1="483" y1="489.47" x2="494" y2="489.47" stroke="black"/>
<line x1="488.5" y1="483.97" x2="488.5" y2="494.97" stroke="black"/>
</svg>
