<svg width="646" height="215" viewBox="0 0 646 215" fill="none" xmlns="http://www.w3.org/2000/svg">
<g opacity="1" filter="url(#filter0_b_163_42)">
<path d="M29.458 102.927C14.214 102.927 4.12 87.889 4.12 64.508C4.12 41.848 15.45 26.81 29.767 26.81C35.329 26.81 39.552 27.943 42.848 29.591C43.775 30.106 44.084 30.621 44.084 31.754L44.393 47.41C44.393 48.543 43.981 49.161 43.157 49.161C42.333 49.161 41.921 48.749 41.715 47.822L40.685 44.011C37.801 33.299 34.093 29.797 28.943 29.797C19.364 29.797 12.154 42.054 12.154 64.508C12.154 87.683 20.394 99.94 29.046 99.94C35.226 99.94 38.625 96.953 41.303 85.932L42.539 80.885C42.745 79.958 43.363 79.443 44.187 79.546C44.908 79.649 45.32 80.164 45.32 81.297L44.908 97.983C44.908 99.116 44.496 99.631 43.569 100.146C40.273 101.794 36.05 102.927 29.458 102.927ZM61.2303 56.062C64.0113 51.324 67.4103 48.852 71.4273 48.852C75.9593 48.852 78.1223 52.045 78.1223 55.341C78.1223 57.916 76.7833 59.77 74.1053 59.77C69.6763 59.77 71.1183 54.62 67.3073 54.62C63.5993 54.62 59.9943 61.83 59.9943 71.203V95.099C59.9943 97.983 60.6123 99.013 63.4963 99.322L66.2773 99.631C66.9983 99.734 67.4103 100.146 67.4103 100.764C67.4103 101.588 66.8953 102 65.8653 102H48.4583C47.4283 102 46.9133 101.588 46.9133 100.867C46.9133 100.249 47.3253 99.837 48.2523 99.631L49.4883 99.425C52.3723 98.91 52.9903 97.983 52.9903 95.099V60.491C52.9903 58.019 52.3723 57.401 50.4153 57.092L48.2523 56.783C47.2223 56.68 46.9133 56.268 46.9133 55.65C46.9133 55.032 47.4283 54.723 48.5613 54.517C52.7843 53.899 54.5353 52.354 57.0073 50.088C57.6253 49.47 58.0373 49.161 58.5523 49.161C59.1703 49.161 59.4793 49.573 59.4793 50.397V55.959C59.4793 56.989 60.5093 57.298 61.2303 56.062ZM93.8153 102.927C83.9273 102.927 76.4083 92.318 76.4083 76.353C76.4083 60.182 84.2363 48.852 94.4333 48.852C102.467 48.852 108.029 55.135 108.029 70.07C108.029 72.233 107.205 73.469 105.454 73.469H85.8843C84.5453 73.469 83.8243 74.19 83.8243 75.838C83.8243 90.361 88.5623 97.674 95.1543 97.674C100.407 97.674 103.497 94.378 105.557 85.52C105.763 84.799 106.175 84.387 106.896 84.387C107.72 84.387 108.029 85.211 107.823 86.447C105.557 98.704 100.613 102.927 93.8153 102.927ZM85.5753 70.894H95.9783C99.3773 70.894 100.922 69.349 100.922 65.744C100.922 56.783 98.6563 51.427 94.3303 51.427C88.9743 51.427 85.0603 57.916 84.0303 69.246C83.9273 70.276 84.5453 70.894 85.5753 70.894ZM118.893 102.927C113.125 102.927 109.005 99.013 109.005 92.936C109.005 84.181 117.966 76.25 130.429 72.233C131.356 71.924 131.768 71.306 131.768 70.482V61.109C131.768 54.517 129.502 51.942 126 51.942C122.498 51.942 119.511 54.826 118.275 62.036C117.554 66.465 114.876 68.319 112.61 68.319C110.859 68.319 109.726 67.289 109.726 65.435C109.726 57.401 119.82 48.852 128.575 48.852C135.167 48.852 138.772 52.663 138.772 60.697V92.215C138.772 95.202 139.596 96.541 140.935 96.541C142.686 96.541 144.54 94.378 144.54 88.61C144.54 87.477 145.158 86.962 145.879 86.962C146.6 86.962 147.115 87.477 147.115 88.713C147.115 98.704 142.995 102.927 138.566 102.927C135.27 102.927 133.313 99.837 132.695 96.129C132.489 94.79 131.253 94.687 130.326 96.026C127.03 100.558 123.94 102.927 118.893 102.927ZM121.674 98.189C126.927 98.189 131.768 92.009 131.768 83.975V76.456C131.768 75.323 130.944 74.808 129.605 75.323C121.262 78.413 116.421 83.666 116.421 91.082C116.421 95.717 118.275 98.189 121.674 98.189ZM158.09 102.927C153.249 102.927 149.85 99.837 149.85 92.112V53.59C149.85 52.869 149.335 52.354 148.614 52.354H145.627C144.597 52.354 143.979 51.942 143.979 51.118C143.979 50.5 144.288 50.088 144.906 49.676C149.438 46.586 151.91 43.393 153.97 37.11C154.485 35.462 155 34.947 155.721 34.947C156.545 34.947 156.854 35.462 156.854 36.595V48.028C156.854 48.955 157.369 49.47 158.296 49.47H164.991C165.918 49.47 166.639 49.985 166.639 50.912C166.639 51.839 165.918 52.354 164.991 52.354H158.296C157.369 52.354 156.854 52.869 156.854 53.796V92.215C156.854 95.202 157.678 97.056 160.253 97.056C163.137 97.056 165.094 94.378 165.609 87.889C165.712 86.962 166.227 86.447 166.948 86.447C167.669 86.447 168.184 86.962 168.184 87.992C167.772 98.601 163.24 102.927 158.09 102.927ZM177.226 39.685C174.342 39.685 172.076 37.419 172.076 34.226C172.076 31.033 174.342 28.87 177.226 28.87C180.11 28.87 182.273 31.033 182.273 34.226C182.273 37.419 180.11 39.685 177.226 39.685ZM168.574 102C167.544 102 167.029 101.588 167.029 100.867C167.029 100.249 167.441 99.837 168.368 99.631L169.604 99.425C173.003 98.91 173.621 97.983 173.621 95.099V60.491C173.621 58.019 173.003 57.401 171.046 57.092L168.883 56.783C167.853 56.68 167.544 56.268 167.544 55.65C167.544 55.032 168.059 54.723 169.192 54.517C173.415 53.899 175.681 52.354 178.153 50.088C178.771 49.47 179.183 49.161 179.698 49.161C180.316 49.161 180.625 49.573 180.625 50.397V95.099C180.625 97.983 181.243 99.013 183.612 99.322L186.187 99.631C186.908 99.734 187.32 100.146 187.32 100.764C187.32 101.588 186.805 102 185.775 102H168.574ZM204.28 102.927C203.765 102.927 203.25 102.721 202.941 101.794L189.242 56.371C188.212 53.075 187.594 52.56 185.74 52.148L184.195 51.839C183.268 51.633 182.856 51.221 182.856 50.5C182.856 49.882 183.371 49.47 184.298 49.47H201.293C202.22 49.47 202.735 49.882 202.735 50.5C202.735 51.221 202.22 51.736 201.396 51.839L199.748 52.045C196.452 52.457 195.834 53.384 196.658 56.371L205.207 86.138C205.619 87.683 206.855 87.683 207.267 86.138L215.61 58.225C216.743 54.517 216.537 52.869 213.138 52.251L210.975 51.839C210.151 51.633 209.636 51.221 209.636 50.5C209.636 49.882 210.151 49.47 211.078 49.47H224.159C225.189 49.47 225.601 49.985 225.601 50.603C225.601 51.221 225.292 51.736 224.365 52.045L223.438 52.354C221.378 53.075 220.039 54.517 218.7 58.843L205.619 101.794C205.31 102.721 204.795 102.927 204.28 102.927ZM239.182 102.927C229.294 102.927 221.775 92.318 221.775 76.353C221.775 60.182 229.603 48.852 239.8 48.852C247.834 48.852 253.396 55.135 253.396 70.07C253.396 72.233 252.572 73.469 250.821 73.469H231.251C229.912 73.469 229.191 74.19 229.191 75.838C229.191 90.361 233.929 97.674 240.521 97.674C245.774 97.674 248.864 94.378 250.924 85.52C251.13 84.799 251.542 84.387 252.263 84.387C253.087 84.387 253.396 85.211 253.19 86.447C250.924 98.704 245.98 102.927 239.182 102.927ZM230.942 70.894H241.345C244.744 70.894 246.289 69.349 246.289 65.744C246.289 56.783 244.023 51.427 239.697 51.427C234.341 51.427 230.427 57.916 229.397 69.246C229.294 70.276 229.912 70.894 230.942 70.894ZM311.631 102.927C305.657 102.927 301.846 99.013 300.198 91.185L297.829 79.752C295.563 68.731 293.297 66.362 284.851 66.362C282.894 66.362 281.761 67.495 281.761 69.04V94.79C281.761 97.674 282.482 98.395 286.293 99.013L290.104 99.631C290.825 99.734 291.237 100.146 291.237 100.764C291.237 101.588 290.722 102 289.692 102H268.783C267.753 102 267.238 101.588 267.238 100.867C267.238 100.146 267.65 99.837 268.577 99.631L270.946 99.219C273.83 98.704 274.448 98.086 274.448 95.202V34.638C274.448 31.754 273.83 31.136 270.946 30.621L268.577 30.209C267.65 30.003 267.238 29.694 267.238 28.973C267.238 28.252 267.753 27.84 268.783 27.84H289.692C301.846 27.84 310.601 35.565 310.601 46.38C310.601 55.032 304.73 62.551 296.799 65.435C295.769 65.744 295.769 66.465 296.696 66.877C301.125 68.937 303.494 72.439 304.833 78.619L307.099 89.125C308.644 96.232 310.498 99.013 313.691 99.013C314.721 99.013 315.442 98.807 316.884 97.777C318.017 97.056 319.15 97.468 319.15 98.601C319.15 100.97 315.648 102.927 311.631 102.927ZM288.662 63.787C297.932 63.787 302.876 56.989 302.876 46.586C302.876 36.492 297.005 30.415 287.22 30.415C283.718 30.415 281.761 31.651 281.761 34.535V58.122C281.761 62.036 283.924 63.787 288.662 63.787ZM331.23 102.927C321.342 102.927 313.823 92.318 313.823 76.353C313.823 60.182 321.651 48.852 331.848 48.852C339.882 48.852 345.444 55.135 345.444 70.07C345.444 72.233 344.62 73.469 342.869 73.469H323.299C321.96 73.469 321.239 74.19 321.239 75.838C321.239 90.361 325.977 97.674 332.569 97.674C337.822 97.674 340.912 94.378 342.972 85.52C343.178 84.799 343.59 84.387 344.311 84.387C345.135 84.387 345.444 85.211 345.238 86.447C342.972 98.704 338.028 102.927 331.23 102.927ZM322.99 70.894H333.393C336.792 70.894 338.337 69.349 338.337 65.744C338.337 56.783 336.071 51.427 331.745 51.427C326.389 51.427 322.475 57.916 321.445 69.246C321.342 70.276 321.96 70.894 322.99 70.894ZM357.441 102.927C354.248 102.927 350.231 102.103 348.068 100.97C347.347 100.558 347.141 100.043 347.141 99.219L346.832 87.683C346.832 86.653 347.347 85.932 348.171 85.932C348.995 85.932 349.407 86.447 349.716 87.58C351.982 97.365 355.278 100.249 360.119 100.249C364.033 100.249 367.02 96.953 367.02 91.494C367.02 86.035 364.239 82.327 357.132 77.177C350.025 72.336 346.832 67.701 346.832 61.933C346.832 54.105 352.806 48.852 361.87 48.852C364.651 48.852 367.329 49.47 369.389 50.809C370.007 51.221 370.316 51.633 370.316 52.457L370.522 63.787C370.522 64.817 370.007 65.332 369.286 65.332C368.359 65.332 368.05 64.611 367.741 63.684C364.96 54.723 362.488 51.736 358.574 51.736C354.969 51.736 352.394 54.517 352.394 58.225C352.394 63.066 354.763 65.847 362.385 71.1C369.183 76.044 372.788 81.709 372.788 88.404C372.788 97.262 366.608 102.927 357.441 102.927ZM391.288 102.927C381.4 102.927 373.881 92.318 373.881 76.353C373.881 60.182 381.709 48.852 391.906 48.852C399.94 48.852 405.502 55.135 405.502 70.07C405.502 72.233 404.678 73.469 402.927 73.469H383.357C382.018 73.469 381.297 74.19 381.297 75.838C381.297 90.361 386.035 97.674 392.627 97.674C397.88 97.674 400.97 94.378 403.03 85.52C403.236 84.799 403.648 84.387 404.369 84.387C405.193 84.387 405.502 85.211 405.296 86.447C403.03 98.704 398.086 102.927 391.288 102.927ZM383.048 70.894H393.451C396.85 70.894 398.395 69.349 398.395 65.744C398.395 56.783 396.129 51.427 391.803 51.427C386.447 51.427 382.533 57.916 381.503 69.246C381.4 70.276 382.018 70.894 383.048 70.894ZM416.365 102.927C410.597 102.927 406.477 99.013 406.477 92.936C406.477 84.181 415.438 76.25 427.901 72.233C428.828 71.924 429.24 71.306 429.24 70.482V61.109C429.24 54.517 426.974 51.942 423.472 51.942C419.97 51.942 416.983 54.826 415.747 62.036C415.026 66.465 412.348 68.319 410.082 68.319C408.331 68.319 407.198 67.289 407.198 65.435C407.198 57.401 417.292 48.852 426.047 48.852C432.639 48.852 436.244 52.663 436.244 60.697V92.215C436.244 95.202 437.068 96.541 438.407 96.541C440.158 96.541 442.012 94.378 442.012 88.61C442.012 87.477 442.63 86.962 443.351 86.962C444.072 86.962 444.587 87.477 444.587 88.713C444.587 98.704 440.467 102.927 436.038 102.927C432.742 102.927 430.785 99.837 430.167 96.129C429.961 94.79 428.725 94.687 427.798 96.026C424.502 100.558 421.412 102.927 416.365 102.927ZM419.146 98.189C424.399 98.189 429.24 92.009 429.24 83.975V76.456C429.24 75.323 428.416 74.808 427.077 75.323C418.734 78.413 413.893 83.666 413.893 91.082C413.893 95.717 415.747 98.189 419.146 98.189ZM456.887 56.062C459.668 51.324 463.067 48.852 467.084 48.852C471.616 48.852 473.779 52.045 473.779 55.341C473.779 57.916 472.44 59.77 469.762 59.77C465.333 59.77 466.775 54.62 462.964 54.62C459.256 54.62 455.651 61.83 455.651 71.203V95.099C455.651 97.983 456.269 99.013 459.153 99.322L461.934 99.631C462.655 99.734 463.067 100.146 463.067 100.764C463.067 101.588 462.552 102 461.522 102H444.115C443.085 102 442.57 101.588 442.57 100.867C442.57 100.249 442.982 99.837 443.909 99.631L445.145 99.425C448.029 98.91 448.647 97.983 448.647 95.099V60.491C448.647 58.019 448.029 57.401 446.072 57.092L443.909 56.783C442.879 56.68 442.57 56.268 442.57 55.65C442.57 55.032 443.085 54.723 444.218 54.517C448.441 53.899 450.192 52.354 452.664 50.088C453.282 49.47 453.694 49.161 454.209 49.161C454.827 49.161 455.136 49.573 455.136 50.397V55.959C455.136 56.989 456.166 57.298 456.887 56.062ZM488.236 102.927C479.172 102.927 472.065 93.348 472.065 77.692C472.065 60.182 480.717 48.852 491.944 48.852C495.24 48.852 497.403 49.367 499.36 50.706C500.081 51.221 500.39 51.839 500.39 52.972L500.596 65.538C500.596 66.568 499.978 67.083 499.36 67.083C498.639 67.083 498.124 66.671 497.918 65.744C495.034 54.414 492.665 51.53 489.163 51.53C485.043 51.53 479.687 58.225 479.687 75.529C479.687 90.258 483.807 97.674 489.884 97.674C494.725 97.674 497.712 94.378 500.081 83.872C500.287 83.151 500.596 82.739 501.317 82.739C502.141 82.739 502.45 83.563 502.244 84.799C499.875 99.322 495.034 102.927 488.236 102.927ZM503.26 102C502.539 102 502.024 101.485 502.024 100.867C502.024 100.249 502.436 99.734 503.157 99.631L504.599 99.425C507.483 99.013 508.101 97.983 508.101 95.099V36.08C508.101 33.608 507.483 32.99 505.526 32.681L503.363 32.372C502.642 32.269 502.23 31.754 502.23 31.136C502.23 30.518 502.642 30.003 503.363 29.9C507.174 29.076 509.749 27.943 511.5 26.81C512.633 26.089 513.354 25.78 513.972 25.78C514.693 25.78 515.105 26.295 515.105 27.428V54.723C515.105 55.959 516.032 56.268 517.268 55.135C522.418 50.397 526.023 48.852 530.452 48.852C536.838 48.852 540.855 53.281 540.855 61.624V95.099C540.855 97.983 541.473 98.91 544.357 99.322L546.623 99.631C547.344 99.734 547.756 100.146 547.756 100.867C547.756 101.588 547.241 102 546.52 102H529.216C528.186 102 527.774 101.485 527.774 100.867C527.774 100.249 528.186 99.734 528.907 99.631L530.349 99.425C533.233 99.013 533.851 97.983 533.851 95.099V62.757C533.851 56.062 531.276 53.59 526.744 53.59C520.152 53.59 515.105 59.976 515.105 67.495V95.099C515.105 97.983 515.723 99.013 518.607 99.322L521.388 99.631C522.109 99.734 522.521 100.146 522.521 100.867C522.521 101.588 522.006 102 521.285 102H503.26ZM587.589 102.927C576.156 102.927 569.667 94.481 569.667 84.696C569.667 74.396 575.744 65.744 584.808 60.079C585.632 59.564 585.735 58.946 585.22 58.122C581.203 51.53 579.143 46.998 579.143 41.642C579.143 33.299 585.632 26.501 595.417 26.501C604.069 26.501 608.807 33.402 608.807 39.273C608.807 46.277 604.584 51.942 594.902 56.989C594.078 57.504 593.872 58.122 594.387 58.946L607.468 79.958C608.086 80.885 608.91 80.885 609.425 79.855C610.97 76.662 612.515 72.954 613.339 70.894C614.884 66.98 614.369 65.229 611.588 64.817L607.983 64.302C607.056 64.199 606.644 63.787 606.644 63.066C606.644 62.448 607.159 62.036 608.086 62.036H626.111C627.038 62.036 627.553 62.448 627.553 63.169C627.553 63.787 627.244 64.302 626.214 64.405L624.257 64.611C621.27 64.92 618.489 66.465 616.326 71.615C615.09 74.602 613.133 79.134 611.279 82.945C610.661 84.181 610.661 85.108 611.382 86.344L617.356 95.923C618.695 97.983 619.519 99.116 621.167 99.219L625.699 99.631C626.523 99.734 626.935 100.146 626.935 100.867C626.935 101.588 626.42 102 625.493 102H614.987C613.648 102 612.721 101.485 612 100.352L607.262 92.936C606.644 92.009 605.923 92.009 605.305 92.833C599.64 100.146 593.666 102.927 587.589 102.927ZM593.357 54.826C599.64 51.015 602.73 45.041 602.73 39.685C602.73 34.741 601.185 29.282 594.902 29.282C589.237 29.282 585.632 34.432 585.632 39.479C585.632 44.011 586.971 47.307 591.4 54.311C591.812 55.135 592.533 55.341 593.357 54.826ZM588.928 98.086C593.769 98.086 598.507 96.026 603.245 90.258C604.069 89.022 604.069 87.992 603.348 86.756L588.207 62.86C587.692 62.139 586.971 61.83 586.147 62.448C579.555 67.083 576.465 74.087 576.465 82.636C576.465 91.185 580.379 98.086 588.928 98.086Z" fill="black"/>
</g>
<g filter="url(#filter1_b_163_42)">
<path d="M18.12 166.08H5.28V158.16H40.38V166.08H27.54V201H18.12V166.08ZM42.0197 158.16H50.5397V174.3H50.7197C51.7997 172.5 53.1797 171.2 54.8597 170.4C56.5397 169.56 58.1797 169.14 59.7797 169.14C62.0597 169.14 63.9197 169.46 65.3597 170.1C66.8397 170.7 67.9997 171.56 68.8397 172.68C69.6797 173.76 70.2597 175.1 70.5797 176.7C70.9397 178.26 71.1197 180 71.1197 181.92V201H62.5997V183.48C62.5997 180.92 62.1997 179.02 61.3997 177.78C60.5997 176.5 59.1797 175.86 57.1397 175.86C54.8197 175.86 53.1397 176.56 52.0997 177.96C51.0597 179.32 50.5397 181.58 50.5397 184.74V201H42.0197V158.16ZM96.0661 182.16C95.6661 180 94.9461 178.36 93.9061 177.24C92.9061 176.12 91.3661 175.56 89.2861 175.56C87.9261 175.56 86.7861 175.8 85.8661 176.28C84.9861 176.72 84.2661 177.28 83.7061 177.96C83.1861 178.64 82.8061 179.36 82.5661 180.12C82.3661 180.88 82.2461 181.56 82.2061 182.16H96.0661ZM82.2061 187.56C82.3261 190.32 83.0261 192.32 84.3061 193.56C85.5861 194.8 87.4261 195.42 89.8261 195.42C91.5461 195.42 93.0261 195 94.2661 194.16C95.5061 193.28 96.2661 192.36 96.5461 191.4H104.046C102.846 195.12 101.006 197.78 98.5261 199.38C96.0461 200.98 93.0461 201.78 89.5261 201.78C87.0861 201.78 84.8861 201.4 82.9261 200.64C80.9661 199.84 79.3061 198.72 77.9461 197.28C76.5861 195.84 75.5261 194.12 74.7661 192.12C74.0461 190.12 73.6861 187.92 73.6861 185.52C73.6861 183.2 74.0661 181.04 74.8261 179.04C75.5861 177.04 76.6661 175.32 78.0661 173.88C79.4661 172.4 81.1261 171.24 83.0461 170.4C85.0061 169.56 87.1661 169.14 89.5261 169.14C92.1661 169.14 94.4661 169.66 96.4261 170.7C98.3861 171.7 99.9861 173.06 101.226 174.78C102.506 176.5 103.426 178.46 103.986 180.66C104.546 182.86 104.746 185.16 104.586 187.56H82.2061ZM114.799 185.52C114.799 186.76 114.919 187.98 115.159 189.18C115.399 190.34 115.799 191.4 116.359 192.36C116.959 193.28 117.739 194.02 118.699 194.58C119.659 195.14 120.859 195.42 122.299 195.42C123.739 195.42 124.939 195.14 125.899 194.58C126.899 194.02 127.679 193.28 128.239 192.36C128.839 191.4 129.259 190.34 129.499 189.18C129.739 187.98 129.859 186.76 129.859 185.52C129.859 184.28 129.739 183.06 129.499 181.86C129.259 180.66 128.839 179.6 128.239 178.68C127.679 177.76 126.899 177.02 125.899 176.46C124.939 175.86 123.739 175.56 122.299 175.56C120.859 175.56 119.659 175.86 118.699 176.46C117.739 177.02 116.959 177.76 116.359 178.68C115.799 179.6 115.399 180.66 115.159 181.86C114.919 183.06 114.799 184.28 114.799 185.52ZM106.279 185.52C106.279 183.04 106.659 180.8 107.419 178.8C108.179 176.76 109.259 175.04 110.659 173.64C112.059 172.2 113.739 171.1 115.699 170.34C117.659 169.54 119.859 169.14 122.299 169.14C124.739 169.14 126.939 169.54 128.899 170.34C130.899 171.1 132.599 172.2 133.999 173.64C135.399 175.04 136.479 176.76 137.239 178.8C137.999 180.8 138.379 183.04 138.379 185.52C138.379 188 137.999 190.24 137.239 192.24C136.479 194.24 135.399 195.96 133.999 197.4C132.599 198.8 130.899 199.88 128.899 200.64C126.939 201.4 124.739 201.78 122.299 201.78C119.859 201.78 117.659 201.4 115.699 200.64C113.739 199.88 112.059 198.8 110.659 197.4C109.259 195.96 108.179 194.24 107.419 192.24C106.659 190.24 106.279 188 106.279 185.52ZM141.519 169.98H149.619V175.74H149.739C150.139 174.78 150.679 173.9 151.359 173.1C152.039 172.26 152.819 171.56 153.699 171C154.579 170.4 155.519 169.94 156.519 169.62C157.519 169.3 158.559 169.14 159.639 169.14C160.199 169.14 160.819 169.24 161.499 169.44V177.36C161.099 177.28 160.619 177.22 160.059 177.18C159.499 177.1 158.959 177.06 158.439 177.06C156.879 177.06 155.559 177.32 154.479 177.84C153.399 178.36 152.519 179.08 151.839 180C151.199 180.88 150.739 181.92 150.459 183.12C150.179 184.32 150.039 185.62 150.039 187.02V201H141.519V169.98ZM177.739 204.84C176.819 207.36 175.539 209.16 173.899 210.24C172.259 211.32 169.979 211.86 167.059 211.86C166.179 211.86 165.299 211.82 164.419 211.74C163.579 211.7 162.719 211.64 161.839 211.56V204.54C162.639 204.62 163.459 204.7 164.299 204.78C165.139 204.86 165.979 204.88 166.819 204.84C167.939 204.72 168.759 204.28 169.279 203.52C169.839 202.76 170.119 201.92 170.119 201C170.119 200.32 169.999 199.68 169.759 199.08L158.899 169.98H167.959L174.979 191.22H175.099L181.879 169.98H190.699L177.739 204.84Z" fill="black"/>
<path d="M212.408 151.684C211.04 154.228 210.044 156.88 209.42 159.64C208.796 162.376 208.484 165.16 208.484 167.992C208.484 170.872 208.784 173.692 209.384 176.452C210.008 179.212 211.004 181.9 212.372 184.516H208.124C206.612 182.044 205.436 179.44 204.596 176.704C203.78 173.968 203.372 171.184 203.372 168.352C203.372 167.008 203.468 165.604 203.66 164.14C203.876 162.652 204.176 161.176 204.56 159.712C204.968 158.248 205.46 156.832 206.036 155.464C206.636 154.096 207.332 152.836 208.124 151.684H212.408ZM221.944 159.208H221.836L215.32 167.956H221.944V159.208ZM221.944 172.168H211.288V167.488L222.232 152.8H226.804V167.956H230.152V172.168H226.804V178H221.944V172.168ZM229.06 184.516C230.38 181.972 231.352 179.344 231.976 176.632C232.624 173.896 232.948 171.112 232.948 168.28C232.948 165.4 232.636 162.568 232.012 159.784C231.388 157 230.416 154.3 229.096 151.684H233.308C234.82 154.156 235.984 156.772 236.8 159.532C237.64 162.292 238.06 165.088 238.06 167.92C238.06 169.264 237.964 170.68 237.772 172.168C237.58 173.632 237.28 175.096 236.872 176.56C236.488 178 235.996 179.404 235.396 180.772C234.796 182.14 234.1 183.388 233.308 184.516H229.06Z" fill="black"/>
</g>
<defs>
<filter id="filter0_b_163_42" x="-5.87988" y="15.78" width="643.433" height="97.147" filterUnits="userSpaceOnUse" color-interpolation-filters="sRGB">
<feFlood flood-opacity="0" result="BackgroundImageFix"/>
<feGaussianBlur in="BackgroundImageFix" stdDeviation="5"/>
<feComposite in2="SourceAlpha" operator="in" result="effect1_backgroundBlur_163_42"/>
<feBlend mode="normal" in="SourceGraphic" in2="effect1_backgroundBlur_163_42" result="shape"/>
</filter>
<filter id="filter1_b_163_42" x="-5.5" y="132" width="256" height="93" filterUnits="userSpaceOnUse" color-interpolation-filters="sRGB">
<feFlood flood-opacity="0" result="BackgroundImageFix"/>
<feGaussianBlur in="BackgroundImageFix" stdDeviation="5"/>
<feComposite in2="SourceAlpha" operator="in" result="effect1_backgroundBlur_163_42"/>
<feBlend mode="normal" in="SourceGraphic" in2="effect1_backgroundBlur_163_42" result="shape"/>
</filter>
</defs>
</svg>
