<svg width="1494" height="215" viewBox="0 0 1494 215" fill="none" xmlns="http://www.w3.org/2000/svg">
<g opacity="1">
<path d="M29.958 102.927C14.714 102.927 4.62 87.889 4.62 64.508C4.62 41.848 15.95 26.81 30.267 26.81C35.829 26.81 40.052 27.943 43.348 29.591C44.275 30.106 44.584 30.621 44.584 31.754L44.893 47.41C44.893 48.543 44.481 49.161 43.657 49.161C42.833 49.161 42.421 48.749 42.215 47.822L41.185 44.011C38.301 33.299 34.593 29.797 29.443 29.797C19.864 29.797 12.654 42.054 12.654 64.508C12.654 87.683 20.894 99.94 29.546 99.94C35.726 99.94 39.125 96.953 41.803 85.932L43.039 80.885C43.245 79.958 43.863 79.443 44.687 79.546C45.408 79.649 45.82 80.164 45.82 81.297L45.408 97.983C45.408 99.116 44.996 99.631 44.069 100.146C40.773 101.794 36.55 102.927 29.958 102.927ZM61.7303 56.062C64.5113 51.324 67.9103 48.852 71.9273 48.852C76.4593 48.852 78.6223 52.045 78.6223 55.341C78.6223 57.916 77.2833 59.77 74.6053 59.77C70.1763 59.77 71.6183 54.62 67.8073 54.62C64.0993 54.62 60.4943 61.83 60.4943 71.203V95.099C60.4943 97.983 61.1123 99.013 63.9963 99.322L66.7773 99.631C67.4983 99.734 67.9103 100.146 67.9103 100.764C67.9103 101.588 67.3953 102 66.3653 102H48.9583C47.9283 102 47.4133 101.588 47.4133 100.867C47.4133 100.249 47.8253 99.837 48.7523 99.631L49.9883 99.425C52.8723 98.91 53.4903 97.983 53.4903 95.099V60.491C53.4903 58.019 52.8723 57.401 50.9153 57.092L48.7523 56.783C47.7223 56.68 47.4133 56.268 47.4133 55.65C47.4133 55.032 47.9283 54.723 49.0613 54.517C53.2843 53.899 55.0353 52.354 57.5073 50.088C58.1253 49.47 58.5373 49.161 59.0523 49.161C59.6703 49.161 59.9793 49.573 59.9793 50.397V55.959C59.9793 56.989 61.0093 57.298 61.7303 56.062ZM94.3153 102.927C84.4273 102.927 76.9083 92.318 76.9083 76.353C76.9083 60.182 84.7363 48.852 94.9333 48.852C102.967 48.852 108.529 55.135 108.529 70.07C108.529 72.233 107.705 73.469 105.954 73.469H86.3843C85.0453 73.469 84.3243 74.19 84.3243 75.838C84.3243 90.361 89.0623 97.674 95.6543 97.674C100.907 97.674 103.997 94.378 106.057 85.52C106.263 84.799 106.675 84.387 107.396 84.387C108.22 84.387 108.529 85.211 108.323 86.447C106.057 98.704 101.113 102.927 94.3153 102.927ZM86.0753 70.894H96.4783C99.8773 70.894 101.422 69.349 101.422 65.744C101.422 56.783 99.1563 51.427 94.8303 51.427C89.4743 51.427 85.5603 57.916 84.5303 69.246C84.4273 70.276 85.0453 70.894 86.0753 70.894ZM119.393 102.927C113.625 102.927 109.505 99.013 109.505 92.936C109.505 84.181 118.466 76.25 130.929 72.233C131.856 71.924 132.268 71.306 132.268 70.482V61.109C132.268 54.517 130.002 51.942 126.5 51.942C122.998 51.942 120.011 54.826 118.775 62.036C118.054 66.465 115.376 68.319 113.11 68.319C111.359 68.319 110.226 67.289 110.226 65.435C110.226 57.401 120.32 48.852 129.075 48.852C135.667 48.852 139.272 52.663 139.272 60.697V92.215C139.272 95.202 140.096 96.541 141.435 96.541C143.186 96.541 145.04 94.378 145.04 88.61C145.04 87.477 145.658 86.962 146.379 86.962C147.1 86.962 147.615 87.477 147.615 88.713C147.615 98.704 143.495 102.927 139.066 102.927C135.77 102.927 133.813 99.837 133.195 96.129C132.989 94.79 131.753 94.687 130.826 96.026C127.53 100.558 124.44 102.927 119.393 102.927ZM122.174 98.189C127.427 98.189 132.268 92.009 132.268 83.975V76.456C132.268 75.323 131.444 74.808 130.105 75.323C121.762 78.413 116.921 83.666 116.921 91.082C116.921 95.717 118.775 98.189 122.174 98.189ZM158.59 102.927C153.749 102.927 150.35 99.837 150.35 92.112V53.59C150.35 52.869 149.835 52.354 149.114 52.354H146.127C145.097 52.354 144.479 51.942 144.479 51.118C144.479 50.5 144.788 50.088 145.406 49.676C149.938 46.586 152.41 43.393 154.47 37.11C154.985 35.462 155.5 34.947 156.221 34.947C157.045 34.947 157.354 35.462 157.354 36.595V48.028C157.354 48.955 157.869 49.47 158.796 49.47H165.491C166.418 49.47 167.139 49.985 167.139 50.912C167.139 51.839 166.418 52.354 165.491 52.354H158.796C157.869 52.354 157.354 52.869 157.354 53.796V92.215C157.354 95.202 158.178 97.056 160.753 97.056C163.637 97.056 165.594 94.378 166.109 87.889C166.212 86.962 166.727 86.447 167.448 86.447C168.169 86.447 168.684 86.962 168.684 87.992C168.272 98.601 163.74 102.927 158.59 102.927ZM177.726 39.685C174.842 39.685 172.576 37.419 172.576 34.226C172.576 31.033 174.842 28.87 177.726 28.87C180.61 28.87 182.773 31.033 182.773 34.226C182.773 37.419 180.61 39.685 177.726 39.685ZM169.074 102C168.044 102 167.529 101.588 167.529 100.867C167.529 100.249 167.941 99.837 168.868 99.631L170.104 99.425C173.503 98.91 174.121 97.983 174.121 95.099V60.491C174.121 58.019 173.503 57.401 171.546 57.092L169.383 56.783C168.353 56.68 168.044 56.268 168.044 55.65C168.044 55.032 168.559 54.723 169.692 54.517C173.915 53.899 176.181 52.354 178.653 50.088C179.271 49.47 179.683 49.161 180.198 49.161C180.816 49.161 181.125 49.573 181.125 50.397V95.099C181.125 97.983 181.743 99.013 184.112 99.322L186.687 99.631C187.408 99.734 187.82 100.146 187.82 100.764C187.82 101.588 187.305 102 186.275 102H169.074ZM204.78 102.927C204.265 102.927 203.75 102.721 203.441 101.794L189.742 56.371C188.712 53.075 188.094 52.56 186.24 52.148L184.695 51.839C183.768 51.633 183.356 51.221 183.356 50.5C183.356 49.882 183.871 49.47 184.798 49.47H201.793C202.72 49.47 203.235 49.882 203.235 50.5C203.235 51.221 202.72 51.736 201.896 51.839L200.248 52.045C196.952 52.457 196.334 53.384 197.158 56.371L205.707 86.138C206.119 87.683 207.355 87.683 207.767 86.138L216.11 58.225C217.243 54.517 217.037 52.869 213.638 52.251L211.475 51.839C210.651 51.633 210.136 51.221 210.136 50.5C210.136 49.882 210.651 49.47 211.578 49.47H224.659C225.689 49.47 226.101 49.985 226.101 50.603C226.101 51.221 225.792 51.736 224.865 52.045L223.938 52.354C221.878 53.075 220.539 54.517 219.2 58.843L206.119 101.794C205.81 102.721 205.295 102.927 204.78 102.927ZM239.682 102.927C229.794 102.927 222.275 92.318 222.275 76.353C222.275 60.182 230.103 48.852 240.3 48.852C248.334 48.852 253.896 55.135 253.896 70.07C253.896 72.233 253.072 73.469 251.321 73.469H231.751C230.412 73.469 229.691 74.19 229.691 75.838C229.691 90.361 234.429 97.674 241.021 97.674C246.274 97.674 249.364 94.378 251.424 85.52C251.63 84.799 252.042 84.387 252.763 84.387C253.587 84.387 253.896 85.211 253.69 86.447C251.424 98.704 246.48 102.927 239.682 102.927ZM231.442 70.894H241.845C245.244 70.894 246.789 69.349 246.789 65.744C246.789 56.783 244.523 51.427 240.197 51.427C234.841 51.427 230.927 57.916 229.897 69.246C229.794 70.276 230.412 70.894 231.442 70.894ZM312.131 102.927C306.157 102.927 302.346 99.013 300.698 91.185L298.329 79.752C296.063 68.731 293.797 66.362 285.351 66.362C283.394 66.362 282.261 67.495 282.261 69.04V94.79C282.261 97.674 282.982 98.395 286.793 99.013L290.604 99.631C291.325 99.734 291.737 100.146 291.737 100.764C291.737 101.588 291.222 102 290.192 102H269.283C268.253 102 267.738 101.588 267.738 100.867C267.738 100.146 268.15 99.837 269.077 99.631L271.446 99.219C274.33 98.704 274.948 98.086 274.948 95.202V34.638C274.948 31.754 274.33 31.136 271.446 30.621L269.077 30.209C268.15 30.003 267.738 29.694 267.738 28.973C267.738 28.252 268.253 27.84 269.283 27.84H290.192C302.346 27.84 311.101 35.565 311.101 46.38C311.101 55.032 305.23 62.551 297.299 65.435C296.269 65.744 296.269 66.465 297.196 66.877C301.625 68.937 303.994 72.439 305.333 78.619L307.599 89.125C309.144 96.232 310.998 99.013 314.191 99.013C315.221 99.013 315.942 98.807 317.384 97.777C318.517 97.056 319.65 97.468 319.65 98.601C319.65 100.97 316.148 102.927 312.131 102.927ZM289.162 63.787C298.432 63.787 303.376 56.989 303.376 46.586C303.376 36.492 297.505 30.415 287.72 30.415C284.218 30.415 282.261 31.651 282.261 34.535V58.122C282.261 62.036 284.424 63.787 289.162 63.787ZM331.73 102.927C321.842 102.927 314.323 92.318 314.323 76.353C314.323 60.182 322.151 48.852 332.348 48.852C340.382 48.852 345.944 55.135 345.944 70.07C345.944 72.233 345.12 73.469 343.369 73.469H323.799C322.46 73.469 321.739 74.19 321.739 75.838C321.739 90.361 326.477 97.674 333.069 97.674C338.322 97.674 341.412 94.378 343.472 85.52C343.678 84.799 344.09 84.387 344.811 84.387C345.635 84.387 345.944 85.211 345.738 86.447C343.472 98.704 338.528 102.927 331.73 102.927ZM323.49 70.894H333.893C337.292 70.894 338.837 69.349 338.837 65.744C338.837 56.783 336.571 51.427 332.245 51.427C326.889 51.427 322.975 57.916 321.945 69.246C321.842 70.276 322.46 70.894 323.49 70.894ZM357.941 102.927C354.748 102.927 350.731 102.103 348.568 100.97C347.847 100.558 347.641 100.043 347.641 99.219L347.332 87.683C347.332 86.653 347.847 85.932 348.671 85.932C349.495 85.932 349.907 86.447 350.216 87.58C352.482 97.365 355.778 100.249 360.619 100.249C364.533 100.249 367.52 96.953 367.52 91.494C367.52 86.035 364.739 82.327 357.632 77.177C350.525 72.336 347.332 67.701 347.332 61.933C347.332 54.105 353.306 48.852 362.37 48.852C365.151 48.852 367.829 49.47 369.889 50.809C370.507 51.221 370.816 51.633 370.816 52.457L371.022 63.787C371.022 64.817 370.507 65.332 369.786 65.332C368.859 65.332 368.55 64.611 368.241 63.684C365.46 54.723 362.988 51.736 359.074 51.736C355.469 51.736 352.894 54.517 352.894 58.225C352.894 63.066 355.263 65.847 362.885 71.1C369.683 76.044 373.288 81.709 373.288 88.404C373.288 97.262 367.108 102.927 357.941 102.927ZM391.788 102.927C381.9 102.927 374.381 92.318 374.381 76.353C374.381 60.182 382.209 48.852 392.406 48.852C400.44 48.852 406.002 55.135 406.002 70.07C406.002 72.233 405.178 73.469 403.427 73.469H383.857C382.518 73.469 381.797 74.19 381.797 75.838C381.797 90.361 386.535 97.674 393.127 97.674C398.38 97.674 401.47 94.378 403.53 85.52C403.736 84.799 404.148 84.387 404.869 84.387C405.693 84.387 406.002 85.211 405.796 86.447C403.53 98.704 398.586 102.927 391.788 102.927ZM383.548 70.894H393.951C397.35 70.894 398.895 69.349 398.895 65.744C398.895 56.783 396.629 51.427 392.303 51.427C386.947 51.427 383.033 57.916 382.003 69.246C381.9 70.276 382.518 70.894 383.548 70.894ZM416.865 102.927C411.097 102.927 406.977 99.013 406.977 92.936C406.977 84.181 415.938 76.25 428.401 72.233C429.328 71.924 429.74 71.306 429.74 70.482V61.109C429.74 54.517 427.474 51.942 423.972 51.942C420.47 51.942 417.483 54.826 416.247 62.036C415.526 66.465 412.848 68.319 410.582 68.319C408.831 68.319 407.698 67.289 407.698 65.435C407.698 57.401 417.792 48.852 426.547 48.852C433.139 48.852 436.744 52.663 436.744 60.697V92.215C436.744 95.202 437.568 96.541 438.907 96.541C440.658 96.541 442.512 94.378 442.512 88.61C442.512 87.477 443.13 86.962 443.851 86.962C444.572 86.962 445.087 87.477 445.087 88.713C445.087 98.704 440.967 102.927 436.538 102.927C433.242 102.927 431.285 99.837 430.667 96.129C430.461 94.79 429.225 94.687 428.298 96.026C425.002 100.558 421.912 102.927 416.865 102.927ZM419.646 98.189C424.899 98.189 429.74 92.009 429.74 83.975V76.456C429.74 75.323 428.916 74.808 427.577 75.323C419.234 78.413 414.393 83.666 414.393 91.082C414.393 95.717 416.247 98.189 419.646 98.189ZM457.387 56.062C460.168 51.324 463.567 48.852 467.584 48.852C472.116 48.852 474.279 52.045 474.279 55.341C474.279 57.916 472.94 59.77 470.262 59.77C465.833 59.77 467.275 54.62 463.464 54.62C459.756 54.62 456.151 61.83 456.151 71.203V95.099C456.151 97.983 456.769 99.013 459.653 99.322L462.434 99.631C463.155 99.734 463.567 100.146 463.567 100.764C463.567 101.588 463.052 102 462.022 102H444.615C443.585 102 443.07 101.588 443.07 100.867C443.07 100.249 443.482 99.837 444.409 99.631L445.645 99.425C448.529 98.91 449.147 97.983 449.147 95.099V60.491C449.147 58.019 448.529 57.401 446.572 57.092L444.409 56.783C443.379 56.68 443.07 56.268 443.07 55.65C443.07 55.032 443.585 54.723 444.718 54.517C448.941 53.899 450.692 52.354 453.164 50.088C453.782 49.47 454.194 49.161 454.709 49.161C455.327 49.161 455.636 49.573 455.636 50.397V55.959C455.636 56.989 456.666 57.298 457.387 56.062ZM488.736 102.927C479.672 102.927 472.565 93.348 472.565 77.692C472.565 60.182 481.217 48.852 492.444 48.852C495.74 48.852 497.903 49.367 499.86 50.706C500.581 51.221 500.89 51.839 500.89 52.972L501.096 65.538C501.096 66.568 500.478 67.083 499.86 67.083C499.139 67.083 498.624 66.671 498.418 65.744C495.534 54.414 493.165 51.53 489.663 51.53C485.543 51.53 480.187 58.225 480.187 75.529C480.187 90.258 484.307 97.674 490.384 97.674C495.225 97.674 498.212 94.378 500.581 83.872C500.787 83.151 501.096 82.739 501.817 82.739C502.641 82.739 502.95 83.563 502.744 84.799C500.375 99.322 495.534 102.927 488.736 102.927ZM503.76 102C503.039 102 502.524 101.485 502.524 100.867C502.524 100.249 502.936 99.734 503.657 99.631L505.099 99.425C507.983 99.013 508.601 97.983 508.601 95.099V36.08C508.601 33.608 507.983 32.99 506.026 32.681L503.863 32.372C503.142 32.269 502.73 31.754 502.73 31.136C502.73 30.518 503.142 30.003 503.863 29.9C507.674 29.076 510.249 27.943 512 26.81C513.133 26.089 513.854 25.78 514.472 25.78C515.193 25.78 515.605 26.295 515.605 27.428V54.723C515.605 55.959 516.532 56.268 517.768 55.135C522.918 50.397 526.523 48.852 530.952 48.852C537.338 48.852 541.355 53.281 541.355 61.624V95.099C541.355 97.983 541.973 98.91 544.857 99.322L547.123 99.631C547.844 99.734 548.256 100.146 548.256 100.867C548.256 101.588 547.741 102 547.02 102H529.716C528.686 102 528.274 101.485 528.274 100.867C528.274 100.249 528.686 99.734 529.407 99.631L530.849 99.425C533.733 99.013 534.351 97.983 534.351 95.099V62.757C534.351 56.062 531.776 53.59 527.244 53.59C520.652 53.59 515.605 59.976 515.605 67.495V95.099C515.605 97.983 516.223 99.013 519.107 99.322L521.888 99.631C522.609 99.734 523.021 100.146 523.021 100.867C523.021 101.588 522.506 102 521.785 102H503.76ZM588.089 102.927C576.656 102.927 570.167 94.481 570.167 84.696C570.167 74.396 576.244 65.744 585.308 60.079C586.132 59.564 586.235 58.946 585.72 58.122C581.703 51.53 579.643 46.998 579.643 41.642C579.643 33.299 586.132 26.501 595.917 26.501C604.569 26.501 609.307 33.402 609.307 39.273C609.307 46.277 605.084 51.942 595.402 56.989C594.578 57.504 594.372 58.122 594.887 58.946L607.968 79.958C608.586 80.885 609.41 80.885 609.925 79.855C611.47 76.662 613.015 72.954 613.839 70.894C615.384 66.98 614.869 65.229 612.088 64.817L608.483 64.302C607.556 64.199 607.144 63.787 607.144 63.066C607.144 62.448 607.659 62.036 608.586 62.036H626.611C627.538 62.036 628.053 62.448 628.053 63.169C628.053 63.787 627.744 64.302 626.714 64.405L624.757 64.611C621.77 64.92 618.989 66.465 616.826 71.615C615.59 74.602 613.633 79.134 611.779 82.945C611.161 84.181 611.161 85.108 611.882 86.344L617.856 95.923C619.195 97.983 620.019 99.116 621.667 99.219L626.199 99.631C627.023 99.734 627.435 100.146 627.435 100.867C627.435 101.588 626.92 102 625.993 102H615.487C614.148 102 613.221 101.485 612.5 100.352L607.762 92.936C607.144 92.009 606.423 92.009 605.805 92.833C600.14 100.146 594.166 102.927 588.089 102.927ZM593.857 54.826C600.14 51.015 603.23 45.041 603.23 39.685C603.23 34.741 601.685 29.282 595.402 29.282C589.737 29.282 586.132 34.432 586.132 39.479C586.132 44.011 587.471 47.307 591.9 54.311C592.312 55.135 593.033 55.341 593.857 54.826ZM589.428 98.086C594.269 98.086 599.007 96.026 603.745 90.258C604.569 89.022 604.569 87.992 603.848 86.756L588.707 62.86C588.192 62.139 587.471 61.83 586.647 62.448C580.055 67.083 576.965 74.087 576.965 82.636C576.965 91.185 580.879 98.086 589.428 98.086ZM663.831 78.3C663.831 80.7 664.264 82.7333 665.131 84.4C665.997 86.0667 667.131 87.4333 668.531 88.5C669.997 89.5 671.697 90.2667 673.631 90.8C675.564 91.2667 677.564 91.5 679.631 91.5C681.031 91.5 682.531 91.4 684.131 91.2C685.731 90.9333 687.231 90.4667 688.631 89.8C690.031 89.1333 691.197 88.2333 692.131 87.1C693.064 85.9 693.531 84.4 693.531 82.6C693.531 80.6667 692.897 79.1 691.631 77.9C690.431 76.7 688.831 75.7 686.831 74.9C684.831 74.1 682.564 73.4 680.031 72.8C677.497 72.2 674.931 71.5333 672.331 70.8C669.664 70.1333 667.064 69.3333 664.531 68.4C661.997 67.4 659.731 66.1333 657.731 64.6C655.731 63.0667 654.097 61.1667 652.831 58.9C651.631 56.5667 651.031 53.7667 651.031 50.5C651.031 46.8333 651.797 43.6667 653.331 41C654.931 38.2667 656.997 36 659.531 34.2C662.064 32.4 664.931 31.0667 668.131 30.2C671.331 29.3333 674.531 28.9 677.731 28.9C681.464 28.9 685.031 29.3333 688.431 30.2C691.897 31 694.964 32.3333 697.631 34.2C700.297 36.0667 702.397 38.4667 703.931 41.4C705.531 44.2667 706.331 47.7667 706.331 51.9H691.131C690.997 49.7667 690.531 48 689.731 46.6C688.997 45.2 687.997 44.1 686.731 43.3C685.464 42.5 683.997 41.9333 682.331 41.6C680.731 41.2667 678.964 41.1 677.031 41.1C675.764 41.1 674.497 41.2333 673.231 41.5C671.964 41.7667 670.797 42.2333 669.731 42.9C668.731 43.5667 667.897 44.4 667.231 45.4C666.564 46.4 666.231 47.6667 666.231 49.2C666.231 50.6 666.497 51.7333 667.031 52.6C667.564 53.4667 668.597 54.2667 670.131 55C671.731 55.7333 673.897 56.4667 676.631 57.2C679.431 57.9333 683.064 58.8667 687.531 60C688.864 60.2667 690.697 60.7667 693.031 61.5C695.431 62.1667 697.797 63.2667 700.131 64.8C702.464 66.3333 704.464 68.4 706.131 71C707.864 73.5333 708.731 76.8 708.731 80.8C708.731 84.0667 708.097 87.1 706.831 89.9C705.564 92.7 703.664 95.1333 701.131 97.2C698.664 99.2 695.564 100.767 691.831 101.9C688.164 103.033 683.897 103.6 679.031 103.6C675.097 103.6 671.264 103.1 667.531 102.1C663.864 101.167 660.597 99.6667 657.731 97.6C654.931 95.5333 652.697 92.9 651.031 89.7C649.364 86.5 648.564 82.7 648.631 78.3H663.831ZM738.672 92.7C741.006 92.7 742.939 92.2333 744.472 91.3C746.072 90.3667 747.339 89.1667 748.272 87.7C749.272 86.1667 749.972 84.4 750.372 82.4C750.772 80.4 750.972 78.3667 750.972 76.3C750.972 74.2333 750.739 72.2 750.272 70.2C749.872 68.2 749.172 66.4333 748.172 64.9C747.172 63.3 745.872 62.0333 744.272 61.1C742.739 60.1 740.839 59.6 738.572 59.6C736.239 59.6 734.272 60.1 732.672 61.1C731.139 62.0333 729.872 63.2667 728.872 64.8C727.939 66.3333 727.272 68.1 726.872 70.1C726.472 72.1 726.272 74.1667 726.272 76.3C726.272 78.3667 726.472 80.4 726.872 82.4C727.339 84.4 728.039 86.1667 728.972 87.7C729.972 89.1667 731.272 90.3667 732.872 91.3C734.472 92.2333 736.406 92.7 738.672 92.7ZM712.572 50.3H726.072V56.9H726.272C728.006 54.1 730.206 52.0667 732.872 50.8C735.539 49.5333 738.472 48.9 741.672 48.9C745.739 48.9 749.239 49.6667 752.172 51.2C755.106 52.7333 757.539 54.7667 759.472 57.3C761.406 59.8333 762.839 62.8 763.772 66.2C764.706 69.5333 765.172 73.0333 765.172 76.7C765.172 80.1667 764.706 83.5 763.772 86.7C762.839 89.9 761.406 92.7333 759.472 95.2C757.606 97.6667 755.239 99.6333 752.372 101.1C749.572 102.567 746.272 103.3 742.472 103.3C739.272 103.3 736.306 102.667 733.572 101.4C730.906 100.067 728.706 98.1333 726.972 95.6H726.772V120.1H712.572V50.3ZM804.505 70.6C803.838 67 802.638 64.2667 800.905 62.4C799.238 60.5333 796.672 59.6 793.205 59.6C790.938 59.6 789.038 60 787.505 60.8C786.038 61.5333 784.838 62.4667 783.905 63.6C783.038 64.7333 782.405 65.9333 782.005 67.2C781.672 68.4667 781.472 69.6 781.405 70.6H804.505ZM781.405 79.6C781.605 84.2 782.772 87.5333 784.905 89.6C787.038 91.6667 790.105 92.7 794.105 92.7C796.972 92.7 799.438 92 801.505 90.6C803.572 89.1333 804.838 87.6 805.305 86H817.805C815.805 92.2 812.738 96.6333 808.605 99.3C804.472 101.967 799.472 103.3 793.605 103.3C789.538 103.3 785.872 102.667 782.605 101.4C779.338 100.067 776.572 98.2 774.305 95.8C772.038 93.4 770.272 90.5333 769.005 87.2C767.805 83.8667 767.205 80.2 767.205 76.2C767.205 72.3333 767.838 68.7333 769.105 65.4C770.372 62.0667 772.172 59.2 774.505 56.8C776.838 54.3333 779.605 52.4 782.805 51C786.072 49.6 789.672 48.9 793.605 48.9C798.005 48.9 801.838 49.7667 805.105 51.5C808.372 53.1667 811.038 55.4333 813.105 58.3C815.238 61.1667 816.772 64.4333 817.705 68.1C818.638 71.7667 818.972 75.6 818.705 79.6H781.405ZM858.327 68.5C857.394 62.5667 853.894 59.6 847.827 59.6C845.56 59.6 843.66 60.1333 842.127 61.2C840.594 62.2 839.327 63.5333 838.327 65.2C837.394 66.8 836.727 68.6 836.327 70.6C835.927 72.5333 835.727 74.4667 835.727 76.4C835.727 78.2667 835.927 80.1667 836.327 82.1C836.727 84.0333 837.36 85.8 838.227 87.4C839.16 88.9333 840.394 90.2 841.927 91.2C843.46 92.2 845.327 92.7 847.527 92.7C850.927 92.7 853.527 91.7667 855.327 89.9C857.194 87.9667 858.36 85.4 858.827 82.2H872.527C871.594 89.0667 868.927 94.3 864.527 97.9C860.127 101.5 854.494 103.3 847.627 103.3C843.76 103.3 840.194 102.667 836.927 101.4C833.727 100.067 830.994 98.2333 828.727 95.9C826.46 93.5667 824.694 90.8 823.427 87.6C822.16 84.3333 821.527 80.7667 821.527 76.9C821.527 72.9 822.094 69.2 823.227 65.8C824.427 62.3333 826.16 59.3667 828.427 56.9C830.694 54.3667 833.46 52.4 836.727 51C839.994 49.6 843.727 48.9 847.927 48.9C850.994 48.9 853.927 49.3 856.727 50.1C859.594 50.9 862.127 52.1333 864.327 53.8C866.594 55.4 868.427 57.4333 869.827 59.9C871.227 62.3 872.027 65.1667 872.227 68.5H858.327ZM925.049 102H911.549V94.8H911.249C909.449 97.8 907.115 99.9667 904.249 101.3C901.382 102.633 898.449 103.3 895.449 103.3C891.649 103.3 888.515 102.8 886.049 101.8C883.649 100.8 881.749 99.4 880.349 97.6C878.949 95.7333 877.949 93.5 877.349 90.9C876.815 88.2333 876.549 85.3 876.549 82.1V50.3H890.749V79.5C890.749 83.7667 891.415 86.9667 892.749 89.1C894.082 91.1667 896.449 92.2 899.849 92.2C903.715 92.2 906.515 91.0667 908.249 88.8C909.982 86.4667 910.849 82.6667 910.849 77.4V50.3H925.049V102ZM932.226 30.6H946.426V102H932.226V30.6ZM953.007 66.2C953.207 62.8667 954.041 60.1 955.507 57.9C956.974 55.7 958.841 53.9333 961.107 52.6C963.374 51.2667 965.907 50.3333 968.707 49.8C971.574 49.2 974.441 48.9 977.307 48.9C979.907 48.9 982.541 49.1 985.207 49.5C987.874 49.8333 990.307 50.5333 992.507 51.6C994.707 52.6667 996.507 54.1667 997.907 56.1C999.307 57.9667 1000.01 60.4667 1000.01 63.6V90.5C1000.01 92.8333 1000.14 95.0667 1000.41 97.2C1000.67 99.3333 1001.14 100.933 1001.81 102H987.407C987.141 101.2 986.907 100.4 986.707 99.6C986.574 98.7333 986.474 97.8667 986.407 97C984.141 99.3333 981.474 100.967 978.407 101.9C975.341 102.833 972.207 103.3 969.007 103.3C966.541 103.3 964.241 103 962.107 102.4C959.974 101.8 958.107 100.867 956.507 99.6C954.907 98.3333 953.641 96.7333 952.707 94.8C951.841 92.8667 951.407 90.5667 951.407 87.9C951.407 84.9667 951.907 82.5667 952.907 80.7C953.974 78.7667 955.307 77.2333 956.907 76.1C958.574 74.9667 960.441 74.1333 962.507 73.6C964.641 73 966.774 72.5333 968.907 72.2C971.041 71.8667 973.141 71.6 975.207 71.4C977.274 71.2 979.107 70.9 980.707 70.5C982.307 70.1 983.574 69.5333 984.507 68.8C985.441 68 985.874 66.8667 985.807 65.4C985.807 63.8667 985.541 62.6667 985.007 61.8C984.541 60.8667 983.874 60.1667 983.007 59.7C982.207 59.1667 981.241 58.8333 980.107 58.7C979.041 58.5 977.874 58.4 976.607 58.4C973.807 58.4 971.607 59 970.007 60.2C968.407 61.4 967.474 63.4 967.207 66.2H953.007ZM985.807 76.7C985.207 77.2333 984.441 77.6667 983.507 78C982.641 78.2667 981.674 78.5 980.607 78.7C979.607 78.9 978.541 79.0667 977.407 79.2C976.274 79.3333 975.141 79.5 974.007 79.7C972.941 79.9 971.874 80.1667 970.807 80.5C969.807 80.8333 968.907 81.3 968.107 81.9C967.374 82.4333 966.774 83.1333 966.307 84C965.841 84.8667 965.607 85.9667 965.607 87.3C965.607 88.5667 965.841 89.6333 966.307 90.5C966.774 91.3667 967.407 92.0667 968.207 92.6C969.007 93.0667 969.941 93.4 971.007 93.6C972.074 93.8 973.174 93.9 974.307 93.9C977.107 93.9 979.274 93.4333 980.807 92.5C982.341 91.5667 983.474 90.4667 984.207 89.2C984.941 87.8667 985.374 86.5333 985.507 85.2C985.707 83.8667 985.807 82.8 985.807 82V76.7ZM1025.03 50.3H1035.43V59.8H1025.03V85.4C1025.03 87.8 1025.43 89.4 1026.23 90.2C1027.03 91 1028.63 91.4 1031.03 91.4C1031.83 91.4 1032.6 91.3667 1033.33 91.3C1034.06 91.2333 1034.76 91.1333 1035.43 91V102C1034.23 102.2 1032.9 102.333 1031.43 102.4C1029.96 102.467 1028.53 102.5 1027.13 102.5C1024.93 102.5 1022.83 102.333 1020.83 102C1018.9 101.733 1017.16 101.167 1015.63 100.3C1014.16 99.4333 1013 98.2 1012.13 96.6C1011.26 95 1010.83 92.9 1010.83 90.3V59.8H1002.23V50.3H1010.83V34.8H1025.03V50.3ZM1052.79 42.3H1038.59V30.6H1052.79V42.3ZM1038.59 50.3H1052.79V102H1038.59V50.3ZM1088.57 102H1072.77L1055.07 50.3H1069.97L1080.87 85.6H1081.07L1091.97 50.3H1106.07L1088.57 102ZM1142.72 70.6C1142.05 67 1140.85 64.2667 1139.12 62.4C1137.45 60.5333 1134.89 59.6 1131.42 59.6C1129.15 59.6 1127.25 60 1125.72 60.8C1124.25 61.5333 1123.05 62.4667 1122.12 63.6C1121.25 64.7333 1120.62 65.9333 1120.22 67.2C1119.89 68.4667 1119.69 69.6 1119.62 70.6H1142.72ZM1119.62 79.6C1119.82 84.2 1120.99 87.5333 1123.12 89.6C1125.25 91.6667 1128.32 92.7 1132.32 92.7C1135.19 92.7 1137.65 92 1139.72 90.6C1141.79 89.1333 1143.05 87.6 1143.52 86H1156.02C1154.02 92.2 1150.95 96.6333 1146.82 99.3C1142.69 101.967 1137.69 103.3 1131.82 103.3C1127.75 103.3 1124.09 102.667 1120.82 101.4C1117.55 100.067 1114.79 98.2 1112.52 95.8C1110.25 93.4 1108.49 90.5333 1107.22 87.2C1106.02 83.8667 1105.42 80.2 1105.42 76.2C1105.42 72.3333 1106.05 68.7333 1107.32 65.4C1108.59 62.0667 1110.39 59.2 1112.72 56.8C1115.05 54.3333 1117.82 52.4 1121.02 51C1124.29 49.6 1127.89 48.9 1131.82 48.9C1136.22 48.9 1140.05 49.7667 1143.32 51.5C1146.59 53.1667 1149.25 55.4333 1151.32 58.3C1153.45 61.1667 1154.99 64.4333 1155.92 68.1C1156.85 71.7667 1157.19 75.6 1156.92 79.6H1119.62ZM1202.37 88.8H1216.37C1218.64 88.8 1220.84 88.4333 1222.97 87.7C1225.11 86.9667 1227.01 85.7667 1228.67 84.1C1230.34 82.3667 1231.67 80.1333 1232.67 77.4C1233.67 74.6667 1234.17 71.3333 1234.17 67.4C1234.17 63.8 1233.81 60.5667 1233.07 57.7C1232.41 54.7667 1231.27 52.2667 1229.67 50.2C1228.07 48.1333 1225.94 46.5667 1223.27 45.5C1220.67 44.3667 1217.44 43.8 1213.57 43.8H1202.37V88.8ZM1186.67 30.6H1217.47C1222.07 30.6 1226.34 31.3333 1230.27 32.8C1234.27 34.2667 1237.71 36.4667 1240.57 39.4C1243.51 42.3333 1245.77 46 1247.37 50.4C1249.04 54.8 1249.87 59.9667 1249.87 65.9C1249.87 71.1 1249.21 75.9 1247.87 80.3C1246.54 84.7 1244.51 88.5 1241.77 91.7C1239.11 94.9 1235.74 97.4333 1231.67 99.3C1227.67 101.1 1222.94 102 1217.47 102H1186.67V30.6ZM1290.09 70.6C1289.43 67 1288.23 64.2667 1286.49 62.4C1284.83 60.5333 1282.26 59.6 1278.79 59.6C1276.53 59.6 1274.63 60 1273.09 60.8C1271.63 61.5333 1270.43 62.4667 1269.49 63.6C1268.63 64.7333 1267.99 65.9333 1267.59 67.2C1267.26 68.4667 1267.06 69.6 1266.99 70.6H1290.09ZM1266.99 79.6C1267.19 84.2 1268.36 87.5333 1270.49 89.6C1272.63 91.6667 1275.69 92.7 1279.69 92.7C1282.56 92.7 1285.03 92 1287.09 90.6C1289.16 89.1333 1290.43 87.6 1290.89 86H1303.39C1301.39 92.2 1298.33 96.6333 1294.19 99.3C1290.06 101.967 1285.06 103.3 1279.19 103.3C1275.13 103.3 1271.46 102.667 1268.19 101.4C1264.93 100.067 1262.16 98.2 1259.89 95.8C1257.63 93.4 1255.86 90.5333 1254.59 87.2C1253.39 83.8667 1252.79 80.2 1252.79 76.2C1252.79 72.3333 1253.43 68.7333 1254.69 65.4C1255.96 62.0667 1257.76 59.2 1260.09 56.8C1262.43 54.3333 1265.19 52.4 1268.39 51C1271.66 49.6 1275.26 48.9 1279.19 48.9C1283.59 48.9 1287.43 49.7667 1290.69 51.5C1293.96 53.1667 1296.63 55.4333 1298.69 58.3C1300.83 61.1667 1302.36 64.4333 1303.29 68.1C1304.23 71.7667 1304.56 75.6 1304.29 79.6H1266.99ZM1319.72 85.2C1319.72 86.7333 1320.02 88.0667 1320.62 89.2C1321.28 90.2667 1322.12 91.1667 1323.12 91.9C1324.12 92.5667 1325.25 93.0667 1326.52 93.4C1327.85 93.7333 1329.22 93.9 1330.62 93.9C1331.62 93.9 1332.65 93.8 1333.72 93.6C1334.85 93.3333 1335.85 92.9667 1336.72 92.5C1337.65 91.9667 1338.42 91.3 1339.02 90.5C1339.62 89.6333 1339.92 88.5667 1339.92 87.3C1339.92 85.1667 1338.48 83.5667 1335.62 82.5C1332.82 81.4333 1328.88 80.3667 1323.82 79.3C1321.75 78.8333 1319.72 78.3 1317.72 77.7C1315.78 77.0333 1314.05 76.2 1312.52 75.2C1310.98 74.1333 1309.75 72.8333 1308.82 71.3C1307.88 69.7 1307.42 67.7667 1307.42 65.5C1307.42 62.1667 1308.05 59.4333 1309.32 57.3C1310.65 55.1667 1312.38 53.5 1314.52 52.3C1316.65 51.0333 1319.05 50.1667 1321.72 49.7C1324.38 49.1667 1327.12 48.9 1329.92 48.9C1332.72 48.9 1335.42 49.1667 1338.02 49.7C1340.68 50.2333 1343.05 51.1333 1345.12 52.4C1347.18 53.6667 1348.88 55.3667 1350.22 57.5C1351.62 59.5667 1352.45 62.2 1352.72 65.4H1339.22C1339.02 62.6667 1337.98 60.8333 1336.12 59.9C1334.25 58.9 1332.05 58.4 1329.52 58.4C1328.72 58.4 1327.85 58.4667 1326.92 58.6C1325.98 58.6667 1325.12 58.8667 1324.32 59.2C1323.58 59.5333 1322.95 60.0333 1322.42 60.7C1321.88 61.3 1321.62 62.1333 1321.62 63.2C1321.62 64.4667 1322.08 65.5 1323.02 66.3C1323.95 67.1 1325.15 67.7667 1326.62 68.3C1328.15 68.7667 1329.88 69.2 1331.82 69.6C1333.75 70 1335.72 70.4333 1337.72 70.9C1339.78 71.3667 1341.78 71.9333 1343.72 72.6C1345.72 73.2667 1347.48 74.1667 1349.02 75.3C1350.55 76.3667 1351.78 77.7333 1352.72 79.4C1353.65 81 1354.12 83 1354.12 85.4C1354.12 88.8 1353.42 91.6667 1352.02 94C1350.68 96.2667 1348.92 98.1 1346.72 99.5C1344.52 100.9 1341.98 101.867 1339.12 102.4C1336.32 103 1333.45 103.3 1330.52 103.3C1327.52 103.3 1324.58 103 1321.72 102.4C1318.85 101.8 1316.28 100.8 1314.02 99.4C1311.82 98 1309.98 96.1667 1308.52 93.9C1307.12 91.5667 1306.35 88.6667 1306.22 85.2H1319.72ZM1373.03 42.3H1358.83V30.6H1373.03V42.3ZM1358.83 50.3H1373.03V102H1358.83V50.3ZM1404.31 89.8C1406.31 89.8 1408.08 89.4 1409.61 88.6C1411.14 87.8 1412.41 86.7333 1413.41 85.4C1414.41 84.0667 1415.14 82.5667 1415.61 80.9C1416.14 79.1667 1416.41 77.3667 1416.41 75.5C1416.41 73.3667 1416.21 71.3667 1415.81 69.5C1415.41 67.5667 1414.74 65.8667 1413.81 64.4C1412.88 62.9333 1411.64 61.7667 1410.11 60.9C1408.58 60.0333 1406.64 59.6 1404.31 59.6C1402.31 59.6 1400.58 60 1399.11 60.8C1397.71 61.6 1396.51 62.7 1395.51 64.1C1394.58 65.4333 1393.88 67 1393.41 68.8C1393.01 70.5333 1392.81 72.3667 1392.81 74.3C1392.81 76.1667 1392.98 78.0333 1393.31 79.9C1393.71 81.7 1394.34 83.3333 1395.21 84.8C1396.14 86.2667 1397.34 87.4667 1398.81 88.4C1400.28 89.3333 1402.11 89.8 1404.31 89.8ZM1429.91 98.7C1429.91 100.767 1429.61 103.133 1429.01 105.8C1428.48 108.467 1427.28 110.933 1425.41 113.2C1423.54 115.533 1420.84 117.5 1417.31 119.1C1413.78 120.7 1409.04 121.5 1403.11 121.5C1400.58 121.5 1397.98 121.167 1395.31 120.5C1392.71 119.9 1390.31 118.933 1388.11 117.6C1385.98 116.267 1384.18 114.533 1382.71 112.4C1381.31 110.333 1380.51 107.833 1380.31 104.9H1394.41C1395.08 107.567 1396.38 109.4 1398.31 110.4C1400.24 111.467 1402.48 112 1405.01 112C1409.01 112 1411.91 110.8 1413.71 108.4C1415.58 106 1416.48 102.967 1416.41 99.3V92.5H1416.21C1414.68 95.2333 1412.48 97.2667 1409.61 98.6C1406.81 99.8667 1403.84 100.5 1400.71 100.5C1396.84 100.5 1393.51 99.8333 1390.71 98.5C1387.91 97.1 1385.61 95.2333 1383.81 92.9C1382.01 90.5 1380.68 87.7333 1379.81 84.6C1379.01 81.4 1378.61 78.0333 1378.61 74.5C1378.61 71.1667 1379.08 67.9667 1380.01 64.9C1381.01 61.7667 1382.44 59.0333 1384.31 56.7C1386.18 54.3 1388.48 52.4 1391.21 51C1394.01 49.6 1397.21 48.9 1400.81 48.9C1404.21 48.9 1407.18 49.5333 1409.71 50.8C1412.31 52.0667 1414.48 54.2 1416.21 57.2H1416.41V50.3H1429.91V98.7ZM1437.34 50.3H1450.84V57.5H1451.14C1452.94 54.5 1455.27 52.3333 1458.14 51C1461.01 49.6 1463.94 48.9 1466.94 48.9C1470.74 48.9 1473.84 49.4333 1476.24 50.5C1478.71 51.5 1480.64 52.9333 1482.04 54.8C1483.44 56.6 1484.41 58.8333 1484.94 61.5C1485.54 64.1 1485.84 67 1485.84 70.2V102H1471.64V72.8C1471.64 68.5333 1470.97 65.3667 1469.64 63.3C1468.31 61.1667 1465.94 60.1 1462.54 60.1C1458.67 60.1 1455.87 61.2667 1454.14 63.6C1452.41 65.8667 1451.54 69.6333 1451.54 74.9V102H1437.34V50.3Z" fill="white"/>
</g>
<path d="M1294.94 201H1285.58L1278.32 171.84H1278.2L1271.06 201H1261.52L1250.18 158.16H1259.6L1266.38 187.32H1266.5L1273.94 158.16H1282.76L1290.08 187.68H1290.2L1297.22 158.16H1306.46L1294.94 201ZM1311.66 185.52C1311.66 186.76 1311.78 187.98 1312.02 189.18C1312.26 190.34 1312.66 191.4 1313.22 192.36C1313.82 193.28 1314.6 194.02 1315.56 194.58C1316.52 195.14 1317.72 195.42 1319.16 195.42C1320.6 195.42 1321.8 195.14 1322.76 194.58C1323.76 194.02 1324.54 193.28 1325.1 192.36C1325.7 191.4 1326.12 190.34 1326.36 189.18C1326.6 187.98 1326.72 186.76 1326.72 185.52C1326.72 184.28 1326.6 183.06 1326.36 181.86C1326.12 180.66 1325.7 179.6 1325.1 178.68C1324.54 177.76 1323.76 177.02 1322.76 176.46C1321.8 175.86 1320.6 175.56 1319.16 175.56C1317.72 175.56 1316.52 175.86 1315.56 176.46C1314.6 177.02 1313.82 177.76 1313.22 178.68C1312.66 179.6 1312.26 180.66 1312.02 181.86C1311.78 183.06 1311.66 184.28 1311.66 185.52ZM1303.14 185.52C1303.14 183.04 1303.52 180.8 1304.28 178.8C1305.04 176.76 1306.12 175.04 1307.52 173.64C1308.92 172.2 1310.6 171.1 1312.56 170.34C1314.52 169.54 1316.72 169.14 1319.16 169.14C1321.6 169.14 1323.8 169.54 1325.76 170.34C1327.76 171.1 1329.46 172.2 1330.86 173.64C1332.26 175.04 1333.34 176.76 1334.1 178.8C1334.86 180.8 1335.24 183.04 1335.24 185.52C1335.24 188 1334.86 190.24 1334.1 192.24C1333.34 194.24 1332.26 195.96 1330.86 197.4C1329.46 198.8 1327.76 199.88 1325.76 200.64C1323.8 201.4 1321.6 201.78 1319.16 201.78C1316.72 201.78 1314.52 201.4 1312.56 200.64C1310.6 199.88 1308.92 198.8 1307.52 197.4C1306.12 195.96 1305.04 194.24 1304.28 192.24C1303.52 190.24 1303.14 188 1303.14 185.52ZM1338.38 169.98H1346.48V175.74H1346.6C1347 174.78 1347.54 173.9 1348.22 173.1C1348.9 172.26 1349.68 171.56 1350.56 171C1351.44 170.4 1352.38 169.94 1353.38 169.62C1354.38 169.3 1355.42 169.14 1356.5 169.14C1357.06 169.14 1357.68 169.24 1358.36 169.44V177.36C1357.96 177.28 1357.48 177.22 1356.92 177.18C1356.36 177.1 1355.82 177.06 1355.3 177.06C1353.74 177.06 1352.42 177.32 1351.34 177.84C1350.26 178.36 1349.38 179.08 1348.7 180C1348.06 180.88 1347.6 181.92 1347.32 183.12C1347.04 184.32 1346.9 185.62 1346.9 187.02V201H1338.38V169.98ZM1360.08 158.16H1368.6V181.14L1379.34 169.98H1389.42L1377.72 181.38L1390.74 201H1380.42L1371.9 187.14L1368.6 190.32V201H1360.08V158.16ZM1397.95 190.92C1397.95 191.84 1398.13 192.64 1398.49 193.32C1398.89 193.96 1399.39 194.5 1399.99 194.94C1400.59 195.34 1401.27 195.64 1402.03 195.84C1402.83 196.04 1403.65 196.14 1404.49 196.14C1405.09 196.14 1405.71 196.08 1406.35 195.96C1407.03 195.8 1407.63 195.58 1408.15 195.3C1408.71 194.98 1409.17 194.58 1409.53 194.1C1409.89 193.58 1410.07 192.94 1410.07 192.18C1410.07 190.9 1409.21 189.94 1407.49 189.3C1405.81 188.66 1403.45 188.02 1400.41 187.38C1399.17 187.1 1397.95 186.78 1396.75 186.42C1395.59 186.02 1394.55 185.52 1393.63 184.92C1392.71 184.28 1391.97 183.5 1391.41 182.58C1390.85 181.62 1390.57 180.46 1390.57 179.1C1390.57 177.1 1390.95 175.46 1391.71 174.18C1392.51 172.9 1393.55 171.9 1394.83 171.18C1396.11 170.42 1397.55 169.9 1399.15 169.62C1400.75 169.3 1402.39 169.14 1404.07 169.14C1405.75 169.14 1407.37 169.3 1408.93 169.62C1410.53 169.94 1411.95 170.48 1413.19 171.24C1414.43 172 1415.45 173.02 1416.25 174.3C1417.09 175.54 1417.59 177.12 1417.75 179.04H1409.65C1409.53 177.4 1408.91 176.3 1407.79 175.74C1406.67 175.14 1405.35 174.84 1403.83 174.84C1403.35 174.84 1402.83 174.88 1402.27 174.96C1401.71 175 1401.19 175.12 1400.71 175.32C1400.27 175.52 1399.89 175.82 1399.57 176.22C1399.25 176.58 1399.09 177.08 1399.09 177.72C1399.09 178.48 1399.37 179.1 1399.93 179.58C1400.49 180.06 1401.21 180.46 1402.09 180.78C1403.01 181.06 1404.05 181.32 1405.21 181.56C1406.37 181.8 1407.55 182.06 1408.75 182.34C1409.99 182.62 1411.19 182.96 1412.35 183.36C1413.55 183.76 1414.61 184.3 1415.53 184.98C1416.45 185.62 1417.19 186.44 1417.75 187.44C1418.31 188.4 1418.59 189.6 1418.59 191.04C1418.59 193.08 1418.17 194.8 1417.33 196.2C1416.53 197.56 1415.47 198.66 1414.15 199.5C1412.83 200.34 1411.31 200.92 1409.59 201.24C1407.91 201.6 1406.19 201.78 1404.43 201.78C1402.63 201.78 1400.87 201.6 1399.15 201.24C1397.43 200.88 1395.89 200.28 1394.53 199.44C1393.21 198.6 1392.11 197.5 1391.23 196.14C1390.39 194.74 1389.93 193 1389.85 190.92H1397.95Z" fill="white"/>
<path d="M1442.91 151.934C1441.54 154.478 1440.54 157.13 1439.92 159.89C1439.3 162.626 1438.98 165.41 1438.98 168.242C1438.98 171.122 1439.28 173.942 1439.88 176.702C1440.51 179.462 1441.5 182.15 1442.87 184.766H1438.62C1437.11 182.294 1435.94 179.69 1435.1 176.954C1434.28 174.218 1433.87 171.434 1433.87 168.602C1433.87 167.258 1433.97 165.854 1434.16 164.39C1434.38 162.902 1434.68 161.426 1435.06 159.962C1435.47 158.498 1435.96 157.082 1436.54 155.714C1437.14 154.346 1437.83 153.086 1438.62 151.934H1442.91ZM1455.32 178.25H1450.21V161.906H1443.88V158.054C1444.76 158.078 1445.62 158.018 1446.43 157.874C1447.27 157.706 1448.02 157.43 1448.66 157.046C1449.34 156.638 1449.9 156.11 1450.36 155.462C1450.81 154.814 1451.11 154.01 1451.26 153.05H1455.32V178.25ZM1469.5 166.118C1470.19 166.118 1470.79 165.998 1471.3 165.758C1471.8 165.494 1472.22 165.146 1472.56 164.714C1472.89 164.282 1473.14 163.79 1473.31 163.238C1473.48 162.662 1473.56 162.062 1473.56 161.438C1473.56 160.862 1473.47 160.298 1473.28 159.746C1473.11 159.17 1472.84 158.666 1472.48 158.234C1472.15 157.778 1471.73 157.418 1471.22 157.154C1470.72 156.89 1470.14 156.758 1469.5 156.758C1468.9 156.758 1468.36 156.89 1467.88 157.154C1467.4 157.418 1466.99 157.766 1466.65 158.198C1466.32 158.63 1466.06 159.122 1465.9 159.674C1465.73 160.226 1465.64 160.79 1465.64 161.366C1465.64 161.966 1465.72 162.554 1465.86 163.13C1466.03 163.682 1466.27 164.186 1466.58 164.642C1466.89 165.074 1467.29 165.434 1467.77 165.722C1468.27 165.986 1468.85 166.118 1469.5 166.118ZM1465.82 171.77C1465.99 172.61 1466.38 173.342 1466.98 173.966C1467.58 174.59 1468.32 174.902 1469.21 174.902C1470.14 174.902 1470.91 174.638 1471.51 174.11C1472.11 173.558 1472.59 172.898 1472.95 172.13C1473.31 171.338 1473.56 170.498 1473.71 169.61C1473.88 168.722 1473.98 167.93 1474.03 167.234L1473.96 167.162C1473.26 168.17 1472.45 168.89 1471.51 169.322C1470.58 169.754 1469.5 169.97 1468.27 169.97C1467.19 169.97 1466.14 169.742 1465.1 169.286C1464.07 168.806 1463.2 168.17 1462.48 167.378C1461.8 166.61 1461.31 165.734 1461 164.75C1460.69 163.766 1460.53 162.77 1460.53 161.762C1460.53 160.466 1460.74 159.266 1461.14 158.162C1461.58 157.034 1462.18 156.062 1462.94 155.246C1463.74 154.406 1464.67 153.746 1465.75 153.266C1466.83 152.786 1468.03 152.546 1469.35 152.546C1471.27 152.546 1472.84 152.93 1474.07 153.698C1475.32 154.442 1476.31 155.438 1477.06 156.686C1477.8 157.91 1478.32 159.302 1478.6 160.862C1478.89 162.422 1479.04 163.994 1479.04 165.578C1479.04 167.138 1478.86 168.698 1478.5 170.258C1478.14 171.818 1477.56 173.234 1476.77 174.506C1475.98 175.754 1474.96 176.774 1473.71 177.566C1472.46 178.334 1470.94 178.718 1469.14 178.718C1468.06 178.718 1467.05 178.562 1466.11 178.25C1465.18 177.962 1464.35 177.518 1463.63 176.918C1462.91 176.318 1462.32 175.586 1461.86 174.722C1461.41 173.858 1461.11 172.874 1460.96 171.77H1465.82ZM1478.12 184.766C1479.44 182.222 1480.42 179.594 1481.04 176.882C1481.69 174.146 1482.01 171.362 1482.01 168.53C1482.01 165.65 1481.7 162.818 1481.08 160.034C1480.45 157.25 1479.48 154.55 1478.16 151.934H1482.37C1483.88 154.406 1485.05 157.022 1485.86 159.782C1486.7 162.542 1487.12 165.338 1487.12 168.17C1487.12 169.514 1487.03 170.93 1486.84 172.418C1486.64 173.882 1486.34 175.346 1485.94 176.81C1485.55 178.25 1485.06 179.654 1484.46 181.022C1483.86 182.39 1483.16 183.638 1482.37 184.766H1478.12Z" fill="white"/>
<path d="M18.62 166.08H5.78V158.16H40.88V166.08H28.04V201H18.62V166.08ZM42.5197 158.16H51.0397V174.3H51.2197C52.2997 172.5 53.6797 171.2 55.3597 170.4C57.0397 169.56 58.6797 169.14 60.2797 169.14C62.5597 169.14 64.4197 169.46 65.8597 170.1C67.3397 170.7 68.4997 171.56 69.3397 172.68C70.1797 173.76 70.7597 175.1 71.0797 176.7C71.4397 178.26 71.6197 180 71.6197 181.92V201H63.0997V183.48C63.0997 180.92 62.6997 179.02 61.8997 177.78C61.0997 176.5 59.6797 175.86 57.6397 175.86C55.3197 175.86 53.6397 176.56 52.5997 177.96C51.5597 179.32 51.0397 181.58 51.0397 184.74V201H42.5197V158.16ZM96.5661 182.16C96.1661 180 95.4461 178.36 94.4061 177.24C93.4061 176.12 91.8661 175.56 89.7861 175.56C88.4261 175.56 87.2861 175.8 86.3661 176.28C85.4861 176.72 84.7661 177.28 84.2061 177.96C83.6861 178.64 83.3061 179.36 83.0661 180.12C82.8661 180.88 82.7461 181.56 82.7061 182.16H96.5661ZM82.7061 187.56C82.8261 190.32 83.5261 192.32 84.8061 193.56C86.0861 194.8 87.9261 195.42 90.3261 195.42C92.0461 195.42 93.5261 195 94.7661 194.16C96.0061 193.28 96.7661 192.36 97.0461 191.4H104.546C103.346 195.12 101.506 197.78 99.0261 199.38C96.5461 200.98 93.5461 201.78 90.0261 201.78C87.5861 201.78 85.3861 201.4 83.4261 200.64C81.4661 199.84 79.8061 198.72 78.4461 197.28C77.0861 195.84 76.0261 194.12 75.2661 192.12C74.5461 190.12 74.1861 187.92 74.1861 185.52C74.1861 183.2 74.5661 181.04 75.3261 179.04C76.0861 177.04 77.1661 175.32 78.5661 173.88C79.9661 172.4 81.6261 171.24 83.5461 170.4C85.5061 169.56 87.6661 169.14 90.0261 169.14C92.6661 169.14 94.9661 169.66 96.9261 170.7C98.8861 171.7 100.486 173.06 101.726 174.78C103.006 176.5 103.926 178.46 104.486 180.66C105.046 182.86 105.246 185.16 105.086 187.56H82.7061ZM115.299 185.52C115.299 186.76 115.419 187.98 115.659 189.18C115.899 190.34 116.299 191.4 116.859 192.36C117.459 193.28 118.239 194.02 119.199 194.58C120.159 195.14 121.359 195.42 122.799 195.42C124.239 195.42 125.439 195.14 126.399 194.58C127.399 194.02 128.179 193.28 128.739 192.36C129.339 191.4 129.759 190.34 129.999 189.18C130.239 187.98 130.359 186.76 130.359 185.52C130.359 184.28 130.239 183.06 129.999 181.86C129.759 180.66 129.339 179.6 128.739 178.68C128.179 177.76 127.399 177.02 126.399 176.46C125.439 175.86 124.239 175.56 122.799 175.56C121.359 175.56 120.159 175.86 119.199 176.46C118.239 177.02 117.459 177.76 116.859 178.68C116.299 179.6 115.899 180.66 115.659 181.86C115.419 183.06 115.299 184.28 115.299 185.52ZM106.779 185.52C106.779 183.04 107.159 180.8 107.919 178.8C108.679 176.76 109.759 175.04 111.159 173.64C112.559 172.2 114.239 171.1 116.199 170.34C118.159 169.54 120.359 169.14 122.799 169.14C125.239 169.14 127.439 169.54 129.399 170.34C131.399 171.1 133.099 172.2 134.499 173.64C135.899 175.04 136.979 176.76 137.739 178.8C138.499 180.8 138.879 183.04 138.879 185.52C138.879 188 138.499 190.24 137.739 192.24C136.979 194.24 135.899 195.96 134.499 197.4C133.099 198.8 131.399 199.88 129.399 200.64C127.439 201.4 125.239 201.78 122.799 201.78C120.359 201.78 118.159 201.4 116.199 200.64C114.239 199.88 112.559 198.8 111.159 197.4C109.759 195.96 108.679 194.24 107.919 192.24C107.159 190.24 106.779 188 106.779 185.52ZM142.019 169.98H150.119V175.74H150.239C150.639 174.78 151.179 173.9 151.859 173.1C152.539 172.26 153.319 171.56 154.199 171C155.079 170.4 156.019 169.94 157.019 169.62C158.019 169.3 159.059 169.14 160.139 169.14C160.699 169.14 161.319 169.24 161.999 169.44V177.36C161.599 177.28 161.119 177.22 160.559 177.18C159.999 177.1 159.459 177.06 158.939 177.06C157.379 177.06 156.059 177.32 154.979 177.84C153.899 178.36 153.019 179.08 152.339 180C151.699 180.88 151.239 181.92 150.959 183.12C150.679 184.32 150.539 185.62 150.539 187.02V201H142.019V169.98ZM178.239 204.84C177.319 207.36 176.039 209.16 174.399 210.24C172.759 211.32 170.479 211.86 167.559 211.86C166.679 211.86 165.799 211.82 164.919 211.74C164.079 211.7 163.219 211.64 162.339 211.56V204.54C163.139 204.62 163.959 204.7 164.799 204.78C165.639 204.86 166.479 204.88 167.319 204.84C168.439 204.72 169.259 204.28 169.779 203.52C170.339 202.76 170.619 201.92 170.619 201C170.619 200.32 170.499 199.68 170.259 199.08L159.399 169.98H168.459L175.479 191.22H175.599L182.379 169.98H191.199L178.239 204.84Z" fill="white"/>
<path d="M212.908 151.684C211.54 154.228 210.544 156.88 209.92 159.64C209.296 162.376 208.984 165.16 208.984 167.992C208.984 170.872 209.284 173.692 209.884 176.452C210.508 179.212 211.504 181.9 212.872 184.516H208.624C207.112 182.044 205.936 179.44 205.096 176.704C204.28 173.968 203.872 171.184 203.872 168.352C203.872 167.008 203.968 165.604 204.16 164.14C204.376 162.652 204.676 161.176 205.06 159.712C205.468 158.248 205.96 156.832 206.536 155.464C207.136 154.096 207.832 152.836 208.624 151.684H212.908ZM222.444 159.208H222.336L215.82 167.956H222.444V159.208ZM222.444 172.168H211.788V167.488L222.732 152.8H227.304V167.956H230.652V172.168H227.304V178H222.444V172.168ZM229.56 184.516C230.88 181.972 231.852 179.344 232.476 176.632C233.124 173.896 233.448 171.112 233.448 168.28C233.448 165.4 233.136 162.568 232.512 159.784C231.888 157 230.916 154.3 229.596 151.684H233.808C235.32 154.156 236.484 156.772 237.3 159.532C238.14 162.292 238.56 165.088 238.56 167.92C238.56 169.264 238.464 170.68 238.272 172.168C238.08 173.632 237.78 175.096 237.372 176.56C236.988 178 236.496 179.404 235.896 180.772C235.296 182.14 234.6 183.388 233.808 184.516H229.56Z" fill="white"/>
</svg>
