<svg width="845" height="212" viewBox="0 0 845 212" fill="none" xmlns="http://www.w3.org/2000/svg">
<path opacity="1" d="M17.6117 75.3C17.6117 77.7 18.0451 79.7333 18.9117 81.4C19.7784 83.0667 20.9117 84.4333 22.3117 85.5C23.7784 86.5 25.4784 87.2667 27.4117 87.8C29.3451 88.2667 31.3451 88.5 33.4117 88.5C34.8117 88.5 36.3117 88.4 37.9117 88.2C39.5117 87.9333 41.0117 87.4667 42.4117 86.8C43.8117 86.1333 44.9784 85.2333 45.9117 84.1C46.8451 82.9 47.3117 81.4 47.3117 79.6C47.3117 77.6667 46.6784 76.1 45.4117 74.9C44.2117 73.7 42.6117 72.7 40.6117 71.9C38.6117 71.1 36.3451 70.4 33.8117 69.8C31.2784 69.2 28.7117 68.5333 26.1117 67.8C23.4451 67.1333 20.8451 66.3333 18.3117 65.4C15.7784 64.4 13.5117 63.1333 11.5117 61.6C9.51172 60.0667 7.87839 58.1667 6.61172 55.9C5.41172 53.5667 4.81172 50.7667 4.81172 47.5C4.81172 43.8333 5.57839 40.6667 7.11172 38C8.71172 35.2667 10.7784 33 13.3117 31.2C15.8451 29.4 18.7117 28.0667 21.9117 27.2C25.1117 26.3333 28.3117 25.9 31.5117 25.9C35.2451 25.9 38.8117 26.3333 42.2117 27.2C45.6784 28 48.7451 29.3333 51.4117 31.2C54.0784 33.0667 56.1784 35.4667 57.7117 38.4C59.3117 41.2667 60.1117 44.7667 60.1117 48.9H44.9117C44.7784 46.7667 44.3117 45 43.5117 43.6C42.7784 42.2 41.7784 41.1 40.5117 40.3C39.2451 39.5 37.7784 38.9333 36.1117 38.6C34.5117 38.2667 32.7451 38.1 30.8117 38.1C29.5451 38.1 28.2784 38.2333 27.0117 38.5C25.7451 38.7667 24.5784 39.2333 23.5117 39.9C22.5117 40.5667 21.6784 41.4 21.0117 42.4C20.3451 43.4 20.0117 44.6667 20.0117 46.2C20.0117 47.6 20.2784 48.7333 20.8117 49.6C21.3451 50.4667 22.3784 51.2667 23.9117 52C25.5117 52.7333 27.6784 53.4667 30.4117 54.2C33.2117 54.9333 36.8451 55.8667 41.3117 57C42.6451 57.2667 44.4784 57.7667 46.8117 58.5C49.2117 59.1667 51.5784 60.2667 53.9117 61.8C56.2451 63.3333 58.2451 65.4 59.9117 68C61.6451 70.5333 62.5117 73.8 62.5117 77.8C62.5117 81.0667 61.8784 84.1 60.6117 86.9C59.3451 89.7 57.4451 92.1333 54.9117 94.2C52.4451 96.2 49.3451 97.7667 45.6117 98.9C41.9451 100.033 37.6784 100.6 32.8117 100.6C28.8784 100.6 25.0451 100.1 21.3117 99.1C17.6451 98.1667 14.3784 96.6667 11.5117 94.6C8.71172 92.5333 6.47839 89.9 4.81172 86.7C3.14505 83.5 2.34505 79.7 2.41172 75.3H17.6117ZM92.4531 89.7C94.7865 89.7 96.7198 89.2333 98.2531 88.3C99.8531 87.3667 101.12 86.1667 102.053 84.7C103.053 83.1667 103.753 81.4 104.153 79.4C104.553 77.4 104.753 75.3667 104.753 73.3C104.753 71.2333 104.52 69.2 104.053 67.2C103.653 65.2 102.953 63.4333 101.953 61.9C100.953 60.3 99.6531 59.0333 98.0531 58.1C96.5198 57.1 94.6198 56.6 92.3531 56.6C90.0198 56.6 88.0531 57.1 86.4531 58.1C84.9198 59.0333 83.6531 60.2667 82.6531 61.8C81.7198 63.3333 81.0531 65.1 80.6531 67.1C80.2531 69.1 80.0531 71.1667 80.0531 73.3C80.0531 75.3667 80.2531 77.4 80.6531 79.4C81.1198 81.4 81.8198 83.1667 82.7531 84.7C83.7531 86.1667 85.0531 87.3667 86.6531 88.3C88.2531 89.2333 90.1865 89.7 92.4531 89.7ZM66.3531 47.3H79.8531V53.9H80.0531C81.7865 51.1 83.9865 49.0667 86.6531 47.8C89.3198 46.5333 92.2531 45.9 95.4531 45.9C99.5198 45.9 103.02 46.6667 105.953 48.2C108.886 49.7333 111.32 51.7667 113.253 54.3C115.186 56.8333 116.62 59.8 117.553 63.2C118.486 66.5333 118.953 70.0333 118.953 73.7C118.953 77.1667 118.486 80.5 117.553 83.7C116.62 86.9 115.186 89.7333 113.253 92.2C111.386 94.6667 109.02 96.6333 106.153 98.1C103.353 99.5667 100.053 100.3 96.2531 100.3C93.0531 100.3 90.0865 99.6667 87.3531 98.4C84.6865 97.0667 82.4865 95.1333 80.7531 92.6H80.5531V117.1H66.3531V47.3ZM158.286 67.6C157.619 64 156.419 61.2667 154.686 59.4C153.019 57.5333 150.453 56.6 146.986 56.6C144.719 56.6 142.819 57 141.286 57.8C139.819 58.5333 138.619 59.4667 137.686 60.6C136.819 61.7333 136.186 62.9333 135.786 64.2C135.453 65.4667 135.253 66.6 135.186 67.6H158.286ZM135.186 76.6C135.386 81.2 136.553 84.5333 138.686 86.6C140.819 88.6667 143.886 89.7 147.886 89.7C150.753 89.7 153.219 89 155.286 87.6C157.353 86.1333 158.619 84.6 159.086 83H171.586C169.586 89.2 166.519 93.6333 162.386 96.3C158.253 98.9667 153.253 100.3 147.386 100.3C143.319 100.3 139.653 99.6667 136.386 98.4C133.119 97.0667 130.353 95.2 128.086 92.8C125.819 90.4 124.053 87.5333 122.786 84.2C121.586 80.8667 120.986 77.2 120.986 73.2C120.986 69.3333 121.619 65.7333 122.886 62.4C124.153 59.0667 125.953 56.2 128.286 53.8C130.619 51.3333 133.386 49.4 136.586 48C139.853 46.6 143.453 45.9 147.386 45.9C151.786 45.9 155.619 46.7667 158.886 48.5C162.153 50.1667 164.819 52.4333 166.886 55.3C169.019 58.1667 170.553 61.4333 171.486 65.1C172.419 68.7667 172.753 72.6 172.486 76.6H135.186ZM212.108 65.5C211.174 59.5667 207.674 56.6 201.608 56.6C199.341 56.6 197.441 57.1333 195.908 58.2C194.374 59.2 193.108 60.5333 192.108 62.2C191.174 63.8 190.508 65.6 190.108 67.6C189.708 69.5333 189.508 71.4667 189.508 73.4C189.508 75.2667 189.708 77.1667 190.108 79.1C190.508 81.0333 191.141 82.8 192.008 84.4C192.941 85.9333 194.174 87.2 195.708 88.2C197.241 89.2 199.108 89.7 201.308 89.7C204.708 89.7 207.308 88.7667 209.108 86.9C210.974 84.9667 212.141 82.4 212.608 79.2H226.308C225.374 86.0667 222.708 91.3 218.308 94.9C213.908 98.5 208.274 100.3 201.408 100.3C197.541 100.3 193.974 99.6667 190.708 98.4C187.508 97.0667 184.774 95.2333 182.508 92.9C180.241 90.5667 178.474 87.8 177.208 84.6C175.941 81.3333 175.308 77.7667 175.308 73.9C175.308 69.9 175.874 66.2 177.008 62.8C178.208 59.3333 179.941 56.3667 182.208 53.9C184.474 51.3667 187.241 49.4 190.508 48C193.774 46.6 197.508 45.9 201.708 45.9C204.774 45.9 207.708 46.3 210.508 47.1C213.374 47.9 215.908 49.1333 218.108 50.8C220.374 52.4 222.208 54.4333 223.608 56.9C225.008 59.3 225.808 62.1667 226.008 65.5H212.108ZM278.83 99H265.33V91.8H265.03C263.23 94.8 260.896 96.9667 258.03 98.3C255.163 99.6333 252.23 100.3 249.23 100.3C245.43 100.3 242.296 99.8 239.83 98.8C237.43 97.8 235.53 96.4 234.13 94.6C232.73 92.7333 231.73 90.5 231.13 87.9C230.596 85.2333 230.33 82.3 230.33 79.1V47.3H244.53V76.5C244.53 80.7667 245.196 83.9667 246.53 86.1C247.863 88.1667 250.23 89.2 253.63 89.2C257.496 89.2 260.296 88.0667 262.03 85.8C263.763 83.4667 264.63 79.6667 264.63 74.4V47.3H278.83V99ZM286.007 27.6H300.207V99H286.007V27.6ZM306.788 63.2C306.988 59.8667 307.822 57.1 309.288 54.9C310.755 52.7 312.622 50.9333 314.888 49.6C317.155 48.2667 319.688 47.3333 322.488 46.8C325.355 46.2 328.222 45.9 331.088 45.9C333.688 45.9 336.322 46.1 338.988 46.5C341.655 46.8333 344.088 47.5333 346.288 48.6C348.488 49.6667 350.288 51.1667 351.688 53.1C353.088 54.9667 353.788 57.4667 353.788 60.6V87.5C353.788 89.8333 353.922 92.0667 354.188 94.2C354.455 96.3333 354.922 97.9333 355.588 99H341.188C340.922 98.2 340.688 97.4 340.488 96.6C340.355 95.7333 340.255 94.8667 340.188 94C337.922 96.3333 335.255 97.9667 332.188 98.9C329.122 99.8333 325.988 100.3 322.788 100.3C320.322 100.3 318.022 100 315.888 99.4C313.755 98.8 311.888 97.8667 310.288 96.6C308.688 95.3333 307.422 93.7333 306.488 91.8C305.622 89.8667 305.188 87.5667 305.188 84.9C305.188 81.9667 305.688 79.5667 306.688 77.7C307.755 75.7667 309.088 74.2333 310.688 73.1C312.355 71.9667 314.222 71.1333 316.288 70.6C318.422 70 320.555 69.5333 322.688 69.2C324.822 68.8667 326.922 68.6 328.988 68.4C331.055 68.2 332.888 67.9 334.488 67.5C336.088 67.1 337.355 66.5333 338.288 65.8C339.222 65 339.655 63.8667 339.588 62.4C339.588 60.8667 339.322 59.6667 338.788 58.8C338.322 57.8667 337.655 57.1667 336.788 56.7C335.988 56.1667 335.022 55.8333 333.888 55.7C332.822 55.5 331.655 55.4 330.388 55.4C327.588 55.4 325.388 56 323.788 57.2C322.188 58.4 321.255 60.4 320.988 63.2H306.788ZM339.588 73.7C338.988 74.2333 338.222 74.6667 337.288 75C336.422 75.2667 335.455 75.5 334.388 75.7C333.388 75.9 332.322 76.0667 331.188 76.2C330.055 76.3333 328.922 76.5 327.788 76.7C326.722 76.9 325.655 77.1667 324.588 77.5C323.588 77.8333 322.688 78.3 321.888 78.9C321.155 79.4333 320.555 80.1333 320.088 81C319.622 81.8667 319.388 82.9667 319.388 84.3C319.388 85.5667 319.622 86.6333 320.088 87.5C320.555 88.3667 321.188 89.0667 321.988 89.6C322.788 90.0667 323.722 90.4 324.788 90.6C325.855 90.8 326.955 90.9 328.088 90.9C330.888 90.9 333.055 90.4333 334.588 89.5C336.122 88.5667 337.255 87.4667 337.988 86.2C338.722 84.8667 339.155 83.5333 339.288 82.2C339.488 80.8667 339.588 79.8 339.588 79V73.7ZM378.81 47.3H389.21V56.8H378.81V82.4C378.81 84.8 379.21 86.4 380.01 87.2C380.81 88 382.41 88.4 384.81 88.4C385.61 88.4 386.377 88.3667 387.11 88.3C387.843 88.2333 388.543 88.1333 389.21 88V99C388.01 99.2 386.677 99.3333 385.21 99.4C383.743 99.4667 382.31 99.5 380.91 99.5C378.71 99.5 376.61 99.3333 374.61 99C372.677 98.7333 370.943 98.1667 369.41 97.3C367.943 96.4333 366.777 95.2 365.91 93.6C365.043 92 364.61 89.9 364.61 87.3V56.8H356.01V47.3H364.61V31.8H378.81V47.3ZM406.566 39.3H392.366V27.6H406.566V39.3ZM392.366 47.3H406.566V99H392.366V47.3ZM442.348 99H426.548L408.848 47.3H423.748L434.648 82.6H434.848L445.748 47.3H459.848L442.348 99ZM496.501 67.6C495.834 64 494.634 61.2667 492.901 59.4C491.234 57.5333 488.667 56.6 485.201 56.6C482.934 56.6 481.034 57 479.501 57.8C478.034 58.5333 476.834 59.4667 475.901 60.6C475.034 61.7333 474.401 62.9333 474.001 64.2C473.667 65.4667 473.467 66.6 473.401 67.6H496.501ZM473.401 76.6C473.601 81.2 474.767 84.5333 476.901 86.6C479.034 88.6667 482.101 89.7 486.101 89.7C488.967 89.7 491.434 89 493.501 87.6C495.567 86.1333 496.834 84.6 497.301 83H509.801C507.801 89.2 504.734 93.6333 500.601 96.3C496.467 98.9667 491.467 100.3 485.601 100.3C481.534 100.3 477.867 99.6667 474.601 98.4C471.334 97.0667 468.567 95.2 466.301 92.8C464.034 90.4 462.267 87.5333 461.001 84.2C459.801 80.8667 459.201 77.2 459.201 73.2C459.201 69.3333 459.834 65.7333 461.101 62.4C462.367 59.0667 464.167 56.2 466.501 53.8C468.834 51.3333 471.601 49.4 474.801 48C478.067 46.6 481.667 45.9 485.601 45.9C490.001 45.9 493.834 46.7667 497.101 48.5C500.367 50.1667 503.034 52.4333 505.101 55.3C507.234 58.1667 508.767 61.4333 509.701 65.1C510.634 68.7667 510.967 72.6 510.701 76.6H473.401ZM556.155 85.8H570.155C572.421 85.8 574.621 85.4333 576.755 84.7C578.888 83.9667 580.788 82.7667 582.455 81.1C584.121 79.3667 585.455 77.1333 586.455 74.4C587.455 71.6667 587.955 68.3333 587.955 64.4C587.955 60.8 587.588 57.5667 586.855 54.7C586.188 51.7667 585.055 49.2667 583.455 47.2C581.855 45.1333 579.721 43.5667 577.055 42.5C574.455 41.3667 571.221 40.8 567.355 40.8H556.155V85.8ZM540.455 27.6H571.255C575.855 27.6 580.121 28.3333 584.055 29.8C588.055 31.2667 591.488 33.4667 594.355 36.4C597.288 39.3333 599.555 43 601.155 47.4C602.821 51.8 603.655 56.9667 603.655 62.9C603.655 68.1 602.988 72.9 601.655 77.3C600.321 81.7 598.288 85.5 595.555 88.7C592.888 91.9 589.521 94.4333 585.455 96.3C581.455 98.1 576.721 99 571.255 99H540.455V27.6ZM643.876 67.6C643.209 64 642.009 61.2667 640.276 59.4C638.609 57.5333 636.042 56.6 632.576 56.6C630.309 56.6 628.409 57 626.876 57.8C625.409 58.5333 624.209 59.4667 623.276 60.6C622.409 61.7333 621.776 62.9333 621.376 64.2C621.042 65.4667 620.842 66.6 620.776 67.6H643.876ZM620.776 76.6C620.976 81.2 622.142 84.5333 624.276 86.6C626.409 88.6667 629.476 89.7 633.476 89.7C636.342 89.7 638.809 89 640.876 87.6C642.942 86.1333 644.209 84.6 644.676 83H657.176C655.176 89.2 652.109 93.6333 647.976 96.3C643.842 98.9667 638.842 100.3 632.976 100.3C628.909 100.3 625.242 99.6667 621.976 98.4C618.709 97.0667 615.942 95.2 613.676 92.8C611.409 90.4 609.642 87.5333 608.376 84.2C607.176 80.8667 606.576 77.2 606.576 73.2C606.576 69.3333 607.209 65.7333 608.476 62.4C609.742 59.0667 611.542 56.2 613.876 53.8C616.209 51.3333 618.976 49.4 622.176 48C625.442 46.6 629.042 45.9 632.976 45.9C637.376 45.9 641.209 46.7667 644.476 48.5C647.742 50.1667 650.409 52.4333 652.476 55.3C654.609 58.1667 656.142 61.4333 657.076 65.1C658.009 68.7667 658.342 72.6 658.076 76.6H620.776ZM673.498 82.2C673.498 83.7333 673.798 85.0667 674.398 86.2C675.064 87.2667 675.898 88.1667 676.898 88.9C677.898 89.5667 679.031 90.0667 680.298 90.4C681.631 90.7333 682.998 90.9 684.398 90.9C685.398 90.9 686.431 90.8 687.498 90.6C688.631 90.3333 689.631 89.9667 690.498 89.5C691.431 88.9667 692.198 88.3 692.798 87.5C693.398 86.6333 693.698 85.5667 693.698 84.3C693.698 82.1667 692.264 80.5667 689.398 79.5C686.598 78.4333 682.664 77.3667 677.598 76.3C675.531 75.8333 673.498 75.3 671.498 74.7C669.564 74.0333 667.831 73.2 666.298 72.2C664.764 71.1333 663.531 69.8333 662.598 68.3C661.664 66.7 661.198 64.7667 661.198 62.5C661.198 59.1667 661.831 56.4333 663.098 54.3C664.431 52.1667 666.164 50.5 668.298 49.3C670.431 48.0333 672.831 47.1667 675.498 46.7C678.164 46.1667 680.898 45.9 683.698 45.9C686.498 45.9 689.198 46.1667 691.798 46.7C694.464 47.2333 696.831 48.1333 698.898 49.4C700.964 50.6667 702.664 52.3667 703.998 54.5C705.398 56.5667 706.231 59.2 706.498 62.4H692.998C692.798 59.6667 691.764 57.8333 689.898 56.9C688.031 55.9 685.831 55.4 683.298 55.4C682.498 55.4 681.631 55.4667 680.698 55.6C679.764 55.6667 678.898 55.8667 678.098 56.2C677.364 56.5333 676.731 57.0333 676.198 57.7C675.664 58.3 675.398 59.1333 675.398 60.2C675.398 61.4667 675.864 62.5 676.798 63.3C677.731 64.1 678.931 64.7667 680.398 65.3C681.931 65.7667 683.664 66.2 685.598 66.6C687.531 67 689.498 67.4333 691.498 67.9C693.564 68.3667 695.564 68.9333 697.498 69.6C699.498 70.2667 701.264 71.1667 702.798 72.3C704.331 73.3667 705.564 74.7333 706.498 76.4C707.431 78 707.898 80 707.898 82.4C707.898 85.8 707.198 88.6667 705.798 91C704.464 93.2667 702.698 95.1 700.498 96.5C698.298 97.9 695.764 98.8667 692.898 99.4C690.098 100 687.231 100.3 684.298 100.3C681.298 100.3 678.364 100 675.498 99.4C672.631 98.8 670.064 97.8 667.798 96.4C665.598 95 663.764 93.1667 662.298 90.9C660.898 88.5667 660.131 85.6667 659.998 82.2H673.498ZM726.809 39.3H712.609V27.6H726.809V39.3ZM712.609 47.3H726.809V99H712.609V47.3ZM758.09 86.8C760.09 86.8 761.857 86.4 763.39 85.6C764.923 84.8 766.19 83.7333 767.19 82.4C768.19 81.0667 768.923 79.5667 769.39 77.9C769.923 76.1667 770.19 74.3667 770.19 72.5C770.19 70.3667 769.99 68.3667 769.59 66.5C769.19 64.5667 768.523 62.8667 767.59 61.4C766.657 59.9333 765.423 58.7667 763.89 57.9C762.357 57.0333 760.423 56.6 758.09 56.6C756.09 56.6 754.357 57 752.89 57.8C751.49 58.6 750.29 59.7 749.29 61.1C748.357 62.4333 747.657 64 747.19 65.8C746.79 67.5333 746.59 69.3667 746.59 71.3C746.59 73.1667 746.757 75.0333 747.09 76.9C747.49 78.7 748.123 80.3333 748.99 81.8C749.923 83.2667 751.123 84.4667 752.59 85.4C754.057 86.3333 755.89 86.8 758.09 86.8ZM783.69 95.7C783.69 97.7667 783.39 100.133 782.79 102.8C782.257 105.467 781.057 107.933 779.19 110.2C777.323 112.533 774.623 114.5 771.09 116.1C767.557 117.7 762.823 118.5 756.89 118.5C754.357 118.5 751.757 118.167 749.09 117.5C746.49 116.9 744.09 115.933 741.89 114.6C739.757 113.267 737.957 111.533 736.49 109.4C735.09 107.333 734.29 104.833 734.09 101.9H748.19C748.857 104.567 750.157 106.4 752.09 107.4C754.023 108.467 756.257 109 758.79 109C762.79 109 765.69 107.8 767.49 105.4C769.357 103 770.257 99.9667 770.19 96.3V89.5H769.99C768.457 92.2333 766.257 94.2667 763.39 95.6C760.59 96.8667 757.623 97.5 754.49 97.5C750.623 97.5 747.29 96.8333 744.49 95.5C741.69 94.1 739.39 92.2333 737.59 89.9C735.79 87.5 734.457 84.7333 733.59 81.6C732.79 78.4 732.39 75.0333 732.39 71.5C732.39 68.1667 732.857 64.9667 733.79 61.9C734.79 58.7667 736.223 56.0333 738.09 53.7C739.957 51.3 742.257 49.4 744.99 48C747.79 46.6 750.99 45.9 754.59 45.9C757.99 45.9 760.957 46.5333 763.49 47.8C766.09 49.0667 768.257 51.2 769.99 54.2H770.19V47.3H783.69V95.7ZM791.123 47.3H804.623V54.5H804.923C806.723 51.5 809.056 49.3333 811.923 48C814.789 46.6 817.723 45.9 820.723 45.9C824.523 45.9 827.623 46.4333 830.023 47.5C832.489 48.5 834.423 49.9333 835.823 51.8C837.223 53.6 838.189 55.8333 838.723 58.5C839.323 61.1 839.623 64 839.623 67.2V99H825.423V69.8C825.423 65.5333 824.756 62.3667 823.423 60.3C822.089 58.1667 819.723 57.1 816.323 57.1C812.456 57.1 809.656 58.2667 807.923 60.6C806.189 62.8667 805.323 66.6333 805.323 71.9V99H791.123V47.3Z" fill="white"/>
<path d="M648.44 198H639.08L631.82 168.84H631.7L624.56 198H615.02L603.68 155.16H613.1L619.88 184.32H620L627.44 155.16H636.26L643.58 184.68H643.7L650.72 155.16H659.96L648.44 198ZM665.162 182.52C665.162 183.76 665.282 184.98 665.522 186.18C665.762 187.34 666.162 188.4 666.722 189.36C667.322 190.28 668.102 191.02 669.062 191.58C670.022 192.14 671.222 192.42 672.662 192.42C674.102 192.42 675.302 192.14 676.262 191.58C677.262 191.02 678.042 190.28 678.602 189.36C679.202 188.4 679.622 187.34 679.862 186.18C680.102 184.98 680.222 183.76 680.222 182.52C680.222 181.28 680.102 180.06 679.862 178.86C679.622 177.66 679.202 176.6 678.602 175.68C678.042 174.76 677.262 174.02 676.262 173.46C675.302 172.86 674.102 172.56 672.662 172.56C671.222 172.56 670.022 172.86 669.062 173.46C668.102 174.02 667.322 174.76 666.722 175.68C666.162 176.6 665.762 177.66 665.522 178.86C665.282 180.06 665.162 181.28 665.162 182.52ZM656.642 182.52C656.642 180.04 657.022 177.8 657.782 175.8C658.542 173.76 659.622 172.04 661.022 170.64C662.422 169.2 664.102 168.1 666.062 167.34C668.022 166.54 670.222 166.14 672.662 166.14C675.102 166.14 677.302 166.54 679.262 167.34C681.262 168.1 682.962 169.2 684.362 170.64C685.762 172.04 686.842 173.76 687.602 175.8C688.362 177.8 688.742 180.04 688.742 182.52C688.742 185 688.362 187.24 687.602 189.24C686.842 191.24 685.762 192.96 684.362 194.4C682.962 195.8 681.262 196.88 679.262 197.64C677.302 198.4 675.102 198.78 672.662 198.78C670.222 198.78 668.022 198.4 666.062 197.64C664.102 196.88 662.422 195.8 661.022 194.4C659.622 192.96 658.542 191.24 657.782 189.24C657.022 187.24 656.642 185 656.642 182.52ZM691.881 166.98H699.981V172.74H700.101C700.501 171.78 701.041 170.9 701.721 170.1C702.401 169.26 703.181 168.56 704.061 168C704.941 167.4 705.881 166.94 706.881 166.62C707.881 166.3 708.921 166.14 710.001 166.14C710.561 166.14 711.181 166.24 711.861 166.44V174.36C711.461 174.28 710.981 174.22 710.421 174.18C709.861 174.1 709.321 174.06 708.801 174.06C707.241 174.06 705.921 174.32 704.841 174.84C703.761 175.36 702.881 176.08 702.201 177C701.561 177.88 701.101 178.92 700.821 180.12C700.541 181.32 700.401 182.62 700.401 184.02V198H691.881V166.98ZM713.582 155.16H722.102V178.14L732.842 166.98H742.922L731.222 178.38L744.242 198H733.922L725.402 184.14L722.102 187.32V198H713.582V155.16ZM751.455 187.92C751.455 188.84 751.635 189.64 751.995 190.32C752.395 190.96 752.895 191.5 753.495 191.94C754.095 192.34 754.775 192.64 755.535 192.84C756.335 193.04 757.155 193.14 757.995 193.14C758.595 193.14 759.215 193.08 759.855 192.96C760.535 192.8 761.135 192.58 761.655 192.3C762.215 191.98 762.675 191.58 763.035 191.1C763.395 190.58 763.575 189.94 763.575 189.18C763.575 187.9 762.715 186.94 760.995 186.3C759.315 185.66 756.955 185.02 753.915 184.38C752.675 184.1 751.455 183.78 750.255 183.42C749.095 183.02 748.055 182.52 747.135 181.92C746.215 181.28 745.475 180.5 744.915 179.58C744.355 178.62 744.075 177.46 744.075 176.1C744.075 174.1 744.455 172.46 745.215 171.18C746.015 169.9 747.055 168.9 748.335 168.18C749.615 167.42 751.055 166.9 752.655 166.62C754.255 166.3 755.895 166.14 757.575 166.14C759.255 166.14 760.875 166.3 762.435 166.62C764.035 166.94 765.455 167.48 766.695 168.24C767.935 169 768.955 170.02 769.755 171.3C770.595 172.54 771.095 174.12 771.255 176.04H763.155C763.035 174.4 762.415 173.3 761.295 172.74C760.175 172.14 758.855 171.84 757.335 171.84C756.855 171.84 756.335 171.88 755.775 171.96C755.215 172 754.695 172.12 754.215 172.32C753.775 172.52 753.395 172.82 753.075 173.22C752.755 173.58 752.595 174.08 752.595 174.72C752.595 175.48 752.875 176.1 753.435 176.58C753.995 177.06 754.715 177.46 755.595 177.78C756.515 178.06 757.555 178.32 758.715 178.56C759.875 178.8 761.055 179.06 762.255 179.34C763.495 179.62 764.695 179.96 765.855 180.36C767.055 180.76 768.115 181.3 769.035 181.98C769.955 182.62 770.695 183.44 771.255 184.44C771.815 185.4 772.095 186.6 772.095 188.04C772.095 190.08 771.675 191.8 770.835 193.2C770.035 194.56 768.975 195.66 767.655 196.5C766.335 197.34 764.815 197.92 763.095 198.24C761.415 198.6 759.695 198.78 757.935 198.78C756.135 198.78 754.375 198.6 752.655 198.24C750.935 197.88 749.395 197.28 748.035 196.44C746.715 195.6 745.615 194.5 744.735 193.14C743.895 191.74 743.435 190 743.355 187.92H751.455Z" fill="white"/>
<path d="M796.408 148.934C795.04 151.478 794.044 154.13 793.42 156.89C792.796 159.626 792.484 162.41 792.484 165.242C792.484 168.122 792.784 170.942 793.384 173.702C794.008 176.462 795.004 179.15 796.372 181.766H792.124C790.612 179.294 789.436 176.69 788.596 173.954C787.78 171.218 787.372 168.434 787.372 165.602C787.372 164.258 787.468 162.854 787.66 161.39C787.876 159.902 788.176 158.426 788.56 156.962C788.968 155.498 789.46 154.082 790.036 152.714C790.636 151.346 791.332 150.086 792.124 148.934H796.408ZM808.824 175.25H803.712V158.906H797.376V155.054C798.264 155.078 799.116 155.018 799.932 154.874C800.772 154.706 801.516 154.43 802.164 154.046C802.836 153.638 803.4 153.11 803.856 152.462C804.312 151.814 804.612 151.01 804.756 150.05H808.824V175.25ZM822.996 163.118C823.692 163.118 824.292 162.998 824.796 162.758C825.3 162.494 825.72 162.146 826.056 161.714C826.392 161.282 826.644 160.79 826.812 160.238C826.98 159.662 827.064 159.062 827.064 158.438C827.064 157.862 826.968 157.298 826.776 156.746C826.608 156.17 826.344 155.666 825.984 155.234C825.648 154.778 825.228 154.418 824.724 154.154C824.22 153.89 823.644 153.758 822.996 153.758C822.396 153.758 821.856 153.89 821.376 154.154C820.896 154.418 820.488 154.766 820.152 155.198C819.816 155.63 819.564 156.122 819.396 156.674C819.228 157.226 819.144 157.79 819.144 158.366C819.144 158.966 819.216 159.554 819.36 160.13C819.528 160.682 819.768 161.186 820.08 161.642C820.392 162.074 820.788 162.434 821.268 162.722C821.772 162.986 822.348 163.118 822.996 163.118ZM819.324 168.77C819.492 169.61 819.876 170.342 820.476 170.966C821.076 171.59 821.82 171.902 822.708 171.902C823.644 171.902 824.412 171.638 825.012 171.11C825.612 170.558 826.092 169.898 826.452 169.13C826.812 168.338 827.064 167.498 827.208 166.61C827.376 165.722 827.484 164.93 827.532 164.234L827.46 164.162C826.764 165.17 825.948 165.89 825.012 166.322C824.076 166.754 822.996 166.97 821.772 166.97C820.692 166.97 819.636 166.742 818.604 166.286C817.572 165.806 816.696 165.17 815.976 164.378C815.304 163.61 814.812 162.734 814.5 161.75C814.188 160.766 814.032 159.77 814.032 158.762C814.032 157.466 814.236 156.266 814.644 155.162C815.076 154.034 815.676 153.062 816.444 152.246C817.236 151.406 818.172 150.746 819.252 150.266C820.332 149.786 821.532 149.546 822.852 149.546C824.772 149.546 826.344 149.93 827.568 150.698C828.816 151.442 829.812 152.438 830.556 153.686C831.3 154.91 831.816 156.302 832.104 157.862C832.392 159.422 832.536 160.994 832.536 162.578C832.536 164.138 832.356 165.698 831.996 167.258C831.636 168.818 831.06 170.234 830.268 171.506C829.476 172.754 828.456 173.774 827.208 174.566C825.96 175.334 824.436 175.718 822.636 175.718C821.556 175.718 820.548 175.562 819.612 175.25C818.676 174.962 817.848 174.518 817.128 173.918C816.408 173.318 815.82 172.586 815.364 171.722C814.908 170.858 814.608 169.874 814.464 168.77H819.324ZM831.624 181.766C832.944 179.222 833.916 176.594 834.54 173.882C835.188 171.146 835.512 168.362 835.512 165.53C835.512 162.65 835.2 159.818 834.576 157.034C833.952 154.25 832.98 151.55 831.66 148.934H835.872C837.384 151.406 838.548 154.022 839.364 156.782C840.204 159.542 840.624 162.338 840.624 165.17C840.624 166.514 840.528 167.93 840.336 169.418C840.144 170.882 839.844 172.346 839.436 173.81C839.052 175.25 838.56 176.654 837.96 178.022C837.36 179.39 836.664 180.638 835.872 181.766H831.624Z" fill="white"/>
</svg>
